<svg xmlns="http://www.w3.org/2000/svg" width="84" height="84" viewBox="0 0 84 84">
  <g id="Group_36" data-name="Group 36" transform="translate(-397 -412)">
    <g id="Group_35" data-name="Group 35" transform="translate(-211 -49)">
      <circle id="Ellipse_8" data-name="Ellipse 8" cx="42" cy="42" r="42" transform="translate(608 461)" fill="#ef3c3d"/>
    </g>
    <g id="noun_define_2479561" transform="translate(413.385 414)">
      <g id="Group_34" data-name="Group 34" transform="translate(1.614 16)">
        <g id="Group_33" data-name="Group 33">
          <g id="Group_25" data-name="Group 25" transform="translate(5.045 5.045)">
            <path id="Path_64" data-name="Path 64" d="M85.172,104.344a19.172,19.172,0,1,1,19.172-19.172A19.193,19.193,0,0,1,85.172,104.344Zm0-36.326a17.154,17.154,0,1,0,17.154,17.154A17.173,17.173,0,0,0,85.172,68.018Z" transform="translate(-66 -66)" fill="#fff"/>
          </g>
          <g id="Group_26" data-name="Group 26" transform="translate(11.099 23.208)">
            <path id="Path_65" data-name="Path 65" d="M139.118,260.127A13.132,13.132,0,0,1,126,247.009a1.009,1.009,0,1,1,2.018,0,11.1,11.1,0,0,0,21.274,4.443,1.009,1.009,0,1,1,1.849.809A13.124,13.124,0,0,1,139.118,260.127Z" transform="translate(-126 -246)" fill="#fff"/>
          </g>
          <g id="Group_27" data-name="Group 27" transform="translate(12.197 11.099)">
            <path id="Path_66" data-name="Path 66" d="M161.006,140.127A1.009,1.009,0,0,1,160,139.118a11.1,11.1,0,0,0-21.193-4.624,1.009,1.009,0,0,1-1.834-.842,13.12,13.12,0,0,1,25.045,5.466A1.009,1.009,0,0,1,161.006,140.127Z" transform="translate(-136.878 -126)" fill="#fff"/>
          </g>
          <g id="Group_28" data-name="Group 28" transform="translate(16.145 16.145)">
            <path id="Path_67" data-name="Path 67" d="M184.072,192.145a8.072,8.072,0,1,1,8.072-8.072A8.082,8.082,0,0,1,184.072,192.145Zm0-14.127a6.054,6.054,0,1,0,6.054,6.054A6.061,6.061,0,0,0,184.072,178.018Z" transform="translate(-176 -176)" fill="#fff"/>
          </g>
          <g id="Group_29" data-name="Group 29" transform="translate(23.208)">
            <path id="Path_68" data-name="Path 68" d="M247.009,39.208A1.009,1.009,0,0,1,246,38.2V17.009a1.009,1.009,0,1,1,2.018,0V38.2A1.009,1.009,0,0,1,247.009,39.208Z" transform="translate(-246 -16)" fill="#fff"/>
          </g>
          <g id="Group_30" data-name="Group 30" transform="translate(23.208 26.235)">
            <path id="Path_69" data-name="Path 69" d="M247.009,298.2A1.009,1.009,0,0,1,246,297.19V277.009a1.009,1.009,0,0,1,2.018,0V297.19A1.009,1.009,0,0,1,247.009,298.2Z" transform="translate(-246 -276)" fill="#fff"/>
          </g>
          <g id="Group_31" data-name="Group 31" transform="translate(25.226 23.208)">
            <path id="Path_70" data-name="Path 70" d="M288.2,248.018h-21.19a1.009,1.009,0,0,1,0-2.018H288.2a1.009,1.009,0,0,1,0,2.018Z" transform="translate(-266 -246)" fill="#fff"/>
          </g>
          <g id="Group_32" data-name="Group 32" transform="translate(0 23.208)">
            <path id="Path_71" data-name="Path 71" d="M37.19,248.018H17.009a1.009,1.009,0,1,1,0-2.018H37.19a1.009,1.009,0,1,1,0,2.018Z" transform="translate(-16 -246)" fill="#fff"/>
          </g>
        </g>
      </g>
    </g>
  </g>
</svg>
