<svg xmlns="http://www.w3.org/2000/svg" width="84" height="84" viewBox="0 0 84 84">
  <g id="Group_24" data-name="Group 24" transform="translate(-608 -461)">
    <circle id="Ellipse_8" data-name="Ellipse 8" cx="42" cy="42" r="42" transform="translate(608 461)" fill="#ef3c3d"/>
    <g id="noun_empathy_66429" transform="translate(607.348 455.331)">
      <path id="Path_63" data-name="Path 63" d="M54.057,23.669a13.718,13.718,0,0,0-11.364,6.087,13.716,13.716,0,0,0-11.364-6.087c-8.18,0-13.677,5.5-13.677,13.677,0,8.877,2.74,19.748,23.067,33.082L42.693,71.7l1.982-1.278c20.319-13.329,23.059-24.2,23.059-33.077C67.733,29.166,62.236,23.669,54.057,23.669ZM31.329,25.991a11.384,11.384,0,0,1,10.12,6.244L35.267,44.4s0,.009-.005.013a1.2,1.2,0,0,0-.051.132c-.01.029-.022.056-.03.084a.931.931,0,0,0-.019.113,1.108,1.108,0,0,0-.016.11c0,.036,0,.073,0,.109a1.1,1.1,0,0,0,0,.113c0,.036.016.071.024.107s.015.077.026.113.025.056.037.084a1.081,1.081,0,0,0,.058.125l.006.014a5.414,5.414,0,0,0,1.65,1.653c-3.444,5-7.148,10.113-7.963,10.822-.008,0-.012.012-.019.015-7.673-8-9-14.808-9-20.66C19.974,30.449,24.432,25.991,31.329,25.991ZM43.407,68.476l-.714.461-.708-.456c-.245-.161-.477-.32-.718-.481,1.064-.935,3.514-3.614,9.783-11.552a1.161,1.161,0,0,0-1.821-1.439c-4,5.068-8.621,10.632-9.547,11.333a1.126,1.126,0,0,0-.393.307q-.693-.487-1.355-.967c1.009-1.026,3.276-3.884,8.946-12.175A1.161,1.161,0,1,0,44.962,52.2c-3.644,5.33-7.869,11.2-8.746,11.961a1.1,1.1,0,0,0-.158.122c-.705-.543-1.39-1.081-2.036-1.615,1.086-1.162,3.4-4.14,8.778-12a1.161,1.161,0,0,0-1.917-1.311c-3.484,5.1-7.49,10.67-8.6,11.819q-.882-.779-1.686-1.545c.93-.9,3.086-3.575,8.715-11.786a5.258,5.258,0,0,0,2.976-1.1c3.637-2.625,5.146-7.717,5.209-7.932a1.161,1.161,0,0,0-2.229-.648c-.013.046-1.358,4.547-4.338,6.7a2.66,2.66,0,0,1-2.057.634,2.37,2.37,0,0,1-1.194-.7l7.061-13.894a11.383,11.383,0,0,1,9.32-4.9c6.9,0,11.355,4.457,11.355,11.355C65.411,45.6,62.8,55.758,43.407,68.476Z" transform="translate(0 0)" fill="#fff"/>
    </g>
  </g>
</svg>
