<?xml version="1.0" encoding="utf-8"?>
<!-- Generator: Adobe Illustrator 24.3.0, SVG Export Plug-In . SVG Version: 6.00 Build 0)  -->
<svg version="1.1" id="Layer_1" xmlns="http://www.w3.org/2000/svg" xmlns:xlink="http://www.w3.org/1999/xlink" x="0px" y="0px"
	 viewBox="0 0 960 446" style="enable-background:new 0 0 960 446;" xml:space="preserve">
<style type="text/css">
	.st0{clip-path:url(#SVGID_2_);}
	.st1{fill-rule:evenodd;clip-rule:evenodd;fill:#FFFFFF;}
	.st2{fill-rule:evenodd;clip-rule:evenodd;fill:#0097A7;}
	.st3{fill-rule:evenodd;clip-rule:evenodd;fill:#FFAB40;}
	.st4{fill-rule:evenodd;clip-rule:evenodd;fill:#191919;fill-opacity:0.6339;}
	.st5{fill-rule:evenodd;clip-rule:evenodd;fill:#B7B7B7;}
	.st6{fill-rule:evenodd;clip-rule:evenodd;fill-opacity:0;}
	.st7{fill:#191919;}
	.st8{fill:none;stroke:#595959;stroke-linejoin:round;stroke-miterlimit:10;}
	.st9{fill:none;stroke:#595959;stroke-miterlimit:10;}
	.st10{fill-rule:evenodd;clip-rule:evenodd;fill:#191919;fill-opacity:0.7608;}
	.st11{fill:#B7B7B7;}
	.st12{fill:#FFAB40;}
	.st13{fill:#0097A7;}
	.st14{fill:#595959;}
</style>
<g>
	<defs>
		<rect id="SVGID_1_" y="-56" width="960" height="540"/>
	</defs>
	<clipPath id="SVGID_2_">
		<use xlink:href="#SVGID_1_"  style="overflow:visible;"/>
	</clipPath>
	<g class="st0">
		<path class="st1" d="M0,0h960v446H0V0z"/>
		<path class="st2" d="M620.5,280.6c-21.2,77.5-101.2,123.2-178.7,102.1C364.2,361.5,318.5,281.6,339.5,204
			c21-77.6,100.9-123.4,178.5-102.4l-3.8,14.1c-69.8-18.9-141.7,22.4-160.7,92.2s22.2,141.7,92,160.7s141.8-22.1,160.8-91.9
			L620.5,280.6z"/>
		<path class="st3" d="M595.2,216.2L595.2,216.2c12.4,55-15.9,111.1-67.4,133.9c-51.6,22.8-112.1,6-144.5-40.2
			s-27.6-108.8,11.5-149.5s101.4-48.1,148.9-17.7l-6.9,10.8c-42.3-27.1-97.9-20.5-132.7,15.7s-39.1,92.1-10.3,133.3
			c28.8,41.2,82.8,56.2,128.8,35.9c46-20.3,71.2-70.3,60.1-119.4L595.2,216.2z"/>
		<path class="st4" d="M567.8,261c-8.3,38.6-40.8,67.2-80.1,70.6s-76.2-19.3-90.9-55.9c-14.7-36.6-3.9-78.5,26.8-103.3
			s73.9-26.7,106.6-4.7l-9.5,14.1c-26.5-17.9-61.6-16.3-86.5,3.8c-24.9,20.1-33.7,54.1-21.7,83.8c12,29.7,41.9,48.1,73.8,45.3
			s58.2-26,65-57.2L567.8,261z"/>
		<path class="st5" d="M520.6,285L520.6,285c-19.2,18.2-48.1,21.4-70.8,7.9s-33.6-40.5-26.8-66c6.9-25.5,29.9-43.4,56.3-43.7l0.1,12
			c-21.1,0.2-39.4,14.5-44.9,34.8c-5.5,20.3,3.2,41.8,21.3,52.6c18.1,10.8,41.1,8.2,56.4-6.3L520.6,285z"/>
		<path class="st6" d="M75.6-9.3h808.8v60.1H75.6L75.6-9.3z"/>
		<path class="st6" d="M60,118h254.5v55.4H60V118z"/>
		<path class="st7" d="M96.4,140.2l-4-14.9h2.9l2.7,11.9l3.2-11.9h3l3.1,11.9l2.7-11.9h3l-4.1,14.9h-3.2l-3-11.1l-3,11.1H96.4z
			 M112.4,140.2l5.5-14.9h3.1l5.5,14.9h-2.9l-1.2-3.5h-5.8l-1.2,3.5H112.4z M117.3,134.6h4.3l-2.2-6.2L117.3,134.6z M128.3,140.2
			v-14.9h2.7l7,10.5v-10.5h2.7v14.9h-2.7l-7-10.5v10.5H128.3z M147.2,140.2v-12.7h-4.3v-2.2h11.5v2.2h-4.4v12.7H147.2z M164.9,140.2
			v-12.7h-4.3v-2.2H172v2.2h-4.4v12.7H164.9z M180.5,140.5c-1.5,0-2.8-0.3-3.9-1c-1.1-0.7-2-1.6-2.6-2.7c-0.6-1.2-1-2.5-1-4
			c0-1.5,0.3-2.9,1-4c0.6-1.2,1.5-2.1,2.6-2.7c1.1-0.7,2.4-1,3.9-1c1.5,0,2.8,0.3,3.9,1c1.1,0.7,2,1.6,2.6,2.7
			c0.6,1.2,0.9,2.5,0.9,4c0,1.5-0.3,2.9-0.9,4c-0.6,1.2-1.5,2.1-2.6,2.7C183.3,140.1,182,140.5,180.5,140.5z M180.5,138
			c1.4,0,2.5-0.5,3.4-1.4c0.8-0.9,1.3-2.2,1.3-3.9c0-1.6-0.4-2.9-1.3-3.9c-0.8-0.9-2-1.4-3.4-1.4c-1.4,0-2.6,0.5-3.4,1.4
			c-0.9,0.9-1.3,2.2-1.3,3.9c0,1.6,0.4,2.9,1.3,3.9C177.9,137.5,179.1,138,180.5,138z M195.4,140.2v-14.9h5.5c1.2,0,2.2,0.2,3,0.6
			c0.8,0.4,1.4,0.9,1.8,1.6c0.4,0.7,0.6,1.5,0.6,2.3c0,0.8-0.2,1.6-0.6,2.3c-0.4,0.7-0.9,1.2-1.7,1.7c-0.8,0.4-1.8,0.6-3,0.6h-2.8
			v5.8H195.4z M198.2,132.2h2.6c1,0,1.6-0.2,2.1-0.6c0.4-0.4,0.6-1,0.6-1.7c0-0.7-0.2-1.3-0.6-1.7c-0.4-0.4-1.1-0.6-2.1-0.6h-2.6
			V132.2z M214.1,140.5c-1.1,0-2.1-0.2-3-0.6c-0.9-0.4-1.6-1.1-2.1-2c-0.5-0.9-0.8-2-0.8-3.4v-9.2h2.7v9.2c0,1.2,0.3,2,0.8,2.6
			c0.6,0.6,1.3,0.9,2.3,0.9c1,0,1.8-0.3,2.3-0.9c0.6-0.6,0.9-1.4,0.9-2.6v-9.2h2.7v9.2c0,1.4-0.3,2.5-0.8,3.4
			c-0.5,0.9-1.3,1.5-2.2,2C216.2,140.3,215.2,140.5,214.1,140.5z M222.9,140.2v-14.9h5.5c1.2,0,2.2,0.2,2.9,0.6
			c0.8,0.4,1.4,1,1.8,1.7c0.4,0.7,0.6,1.4,0.6,2.3c0,0.9-0.2,1.8-0.7,2.5c-0.5,0.8-1.2,1.3-2.2,1.6l3.1,6.2h-3.1l-2.8-5.9h-2.2v5.9
			H222.9z M225.6,132.3h2.6c0.9,0,1.6-0.2,2-0.7c0.4-0.4,0.6-1,0.6-1.8c0-0.7-0.2-1.3-0.6-1.7c-0.4-0.4-1.1-0.6-2-0.6h-2.5V132.3z
			 M243,140.5c-1.5,0-2.8-0.3-3.9-1c-1.1-0.6-1.9-1.5-2.5-2.7c-0.6-1.2-0.9-2.5-0.9-4c0-1.5,0.3-2.9,0.9-4c0.6-1.2,1.4-2.1,2.5-2.7
			c1.1-0.7,2.4-1,3.9-1c1.8,0,3.3,0.4,4.4,1.3c1.1,0.9,1.9,2.1,2.2,3.7h-3c-0.2-0.8-0.6-1.4-1.2-1.9c-0.6-0.5-1.4-0.7-2.4-0.7
			c-1.4,0-2.5,0.5-3.2,1.4c-0.8,0.9-1.2,2.2-1.2,3.9c0,1.6,0.4,2.9,1.2,3.8c0.8,0.9,1.9,1.4,3.2,1.4c1,0,1.8-0.2,2.4-0.6
			c0.6-0.4,1-1,1.2-1.8h3c-0.3,1.5-1,2.7-2.2,3.6C246.2,140,244.7,140.5,243,140.5z M251.9,140.2v-14.9h2.7v6.2h6.7v-6.2h2.7v14.9
			h-2.7v-6.5h-6.7v6.5H251.9z M266,140.2l5.5-14.9h3.1l5.5,14.9h-2.9l-1.2-3.5h-5.8l-1.2,3.5H266z M270.8,134.6h4.3l-2.2-6.2
			L270.8,134.6z M287,140.5c-1.1,0-2.1-0.2-2.9-0.6c-0.8-0.4-1.5-0.9-2-1.6c-0.5-0.7-0.7-1.6-0.7-2.6h2.9c0,0.7,0.3,1.3,0.8,1.8
			c0.5,0.5,1.1,0.7,2,0.7c0.7,0,1.3-0.2,1.7-0.5c0.4-0.4,0.6-0.8,0.6-1.4c0-0.6-0.2-1.1-0.6-1.4c-0.4-0.3-0.9-0.6-1.5-0.8
			c-0.6-0.2-1.3-0.4-2-0.7c-1.1-0.4-2-0.9-2.6-1.5c-0.6-0.6-0.9-1.5-0.9-2.5c0-0.9,0.2-1.6,0.6-2.3c0.4-0.6,1-1.1,1.8-1.5
			c0.8-0.4,1.6-0.5,2.6-0.5c1,0,1.9,0.2,2.6,0.5c0.8,0.4,1.4,0.9,1.8,1.5c0.4,0.6,0.7,1.4,0.7,2.3h-2.9c0-0.5-0.2-1-0.6-1.4
			c-0.4-0.4-0.9-0.6-1.6-0.6c-0.6,0-1.1,0.1-1.5,0.4c-0.4,0.3-0.6,0.7-0.6,1.3c0,0.5,0.2,0.9,0.5,1.2c0.3,0.3,0.7,0.5,1.3,0.7
			c0.5,0.2,1.2,0.4,1.8,0.6c0.7,0.3,1.4,0.5,2,0.9c0.6,0.3,1.1,0.8,1.5,1.4c0.4,0.6,0.6,1.3,0.6,2.2c0,0.8-0.2,1.5-0.6,2.2
			c-0.4,0.7-1,1.2-1.8,1.6C289.1,140.3,288.1,140.5,287,140.5z M294.6,140.2v-14.9h9.8v2.2h-7v4.1h6.4v2.1h-6.4v4.3h7v2.2H294.6z"/>
		<path class="st7" d="M83.2,166.5c-1.5,0-2.8-0.3-3.9-1c-1.1-0.7-2-1.6-2.6-2.7c-0.6-1.2-1-2.5-1-4c0-1.5,0.3-2.9,1-4
			c0.6-1.2,1.5-2.1,2.6-2.7c1.1-0.7,2.4-1,3.9-1c1.5,0,2.8,0.3,3.9,1c1.1,0.7,2,1.6,2.6,2.7c0.6,1.2,0.9,2.5,0.9,4
			c0,1.4-0.3,2.7-0.8,3.8c-0.6,1.1-1.3,2-2.3,2.7l3.5,3.7h-3.4l-2.3-2.7C84.6,166.4,83.9,166.5,83.2,166.5z M83.2,164
			c1.4,0,2.5-0.5,3.4-1.4c0.8-0.9,1.3-2.2,1.3-3.9c0-1.6-0.4-2.9-1.3-3.9c-0.8-0.9-2-1.4-3.4-1.4c-1.4,0-2.6,0.5-3.4,1.4
			c-0.9,0.9-1.3,2.2-1.3,3.9c0,1.6,0.4,2.9,1.3,3.9C80.6,163.5,81.8,164,83.2,164z M98.7,166.5c-1.1,0-2.1-0.2-3-0.6
			c-0.9-0.4-1.6-1.1-2.1-2c-0.5-0.9-0.8-2-0.8-3.4v-9.2h2.7v9.2c0,1.2,0.3,2,0.8,2.6c0.6,0.6,1.3,0.9,2.3,0.9c1,0,1.8-0.3,2.3-0.9
			c0.6-0.6,0.9-1.4,0.9-2.6v-9.2h2.7v9.2c0,1.4-0.3,2.5-0.8,3.4c-0.5,0.9-1.3,1.5-2.2,2C100.8,166.3,99.8,166.5,98.7,166.5z
			 M105.9,166.2l5.5-14.9h3.1l5.5,14.9H117l-1.2-3.5H110l-1.2,3.5H105.9z M110.7,160.6h4.3l-2.2-6.2L110.7,160.6z M121.8,166.2
			v-14.9h2.7v12.8h6.6v2.1H121.8z M133.6,166.2v-14.9h2.7v14.9H133.6z M142.7,166.2v-12.7h-4.3v-2.2h11.5v2.2h-4.4v12.7H142.7z
			 M155.7,166.2v-5.3l-5-9.6h3.1l3.3,6.9l3.3-6.9h3l-5,9.6v5.3H155.7z M170.2,166.2v-14.9h2.7v14.9H170.2z M175.8,166.2v-14.9h2.7
			l7,10.5v-10.5h2.7v14.9h-2.7l-7-10.5v10.5H175.8z M197.8,166.5c-1.4,0-2.7-0.3-3.7-1c-1.1-0.6-1.9-1.5-2.5-2.7
			c-0.6-1.1-0.9-2.5-0.9-4c0-1.5,0.3-2.9,0.9-4.1c0.6-1.2,1.5-2.1,2.6-2.8c1.1-0.7,2.5-1,4-1c1.8,0,3.2,0.4,4.3,1.3
			c1.2,0.8,1.9,2,2.2,3.5h-3c-0.2-0.7-0.6-1.2-1.2-1.6c-0.6-0.4-1.4-0.6-2.3-0.6c-1.5,0-2.6,0.5-3.5,1.4c-0.8,0.9-1.2,2.2-1.2,3.9
			c0,1.6,0.4,2.9,1.2,3.8c0.8,0.9,1.9,1.4,3.3,1.4c1.4,0,2.4-0.4,3.1-1.1c0.7-0.7,1.1-1.7,1.2-2.9h-3.8V158h6.5v8.2h-2.5l-0.2-2
			c-0.5,0.7-1.1,1.3-1.8,1.7C199.8,166.3,198.9,166.5,197.8,166.5z M207.7,166.2v-14.9h5.5c1.2,0,2.2,0.2,2.9,0.6
			c0.8,0.4,1.4,1,1.8,1.7c0.4,0.7,0.6,1.4,0.6,2.3c0,0.9-0.2,1.8-0.7,2.5c-0.5,0.8-1.2,1.3-2.2,1.6l3.1,6.2h-3.1l-2.8-5.9h-2.2v5.9
			H207.7z M210.4,158.3h2.6c0.9,0,1.6-0.2,2-0.7c0.4-0.4,0.6-1,0.6-1.8c0-0.7-0.2-1.3-0.6-1.7c-0.4-0.4-1.1-0.6-2-0.6h-2.5V158.3z
			 M221,166.2v-14.9h9.8v2.2h-7v4.1h6.4v2.1h-6.4v4.3h7v2.2H221z M233.3,166.2v-14.9h5.1c1.8,0,3.2,0.3,4.3,0.9
			c1.1,0.6,2,1.5,2.5,2.6c0.6,1.1,0.8,2.4,0.8,3.9c0,1.5-0.3,2.8-0.8,3.9c-0.5,1.1-1.4,2-2.5,2.6c-1.1,0.6-2.6,0.9-4.3,0.9H233.3z
			 M236.1,163.9h2.2c1.2,0,2.2-0.2,3-0.6c0.7-0.4,1.2-1,1.6-1.8c0.3-0.8,0.5-1.7,0.5-2.8c0-1.1-0.2-2-0.5-2.8
			c-0.3-0.8-0.8-1.4-1.6-1.8c-0.7-0.4-1.7-0.6-3-0.6h-2.2V163.9z M248.5,166.2v-14.9h2.7v14.9H248.5z M254.1,166.2v-14.9h9.8v2.2h-7
			v4.1h6.4v2.1h-6.4v4.3h7v2.2H254.1z M266.4,166.2v-14.9h2.7l7,10.5v-10.5h2.7v14.9h-2.7l-7-10.5v10.5H266.4z M285.3,166.2v-12.7
			H281v-2.2h11.5v2.2H288v12.7H285.3z M299.3,166.5c-1.1,0-2.1-0.2-2.9-0.6c-0.8-0.4-1.5-0.9-2-1.6c-0.5-0.7-0.7-1.6-0.7-2.6h2.9
			c0,0.7,0.3,1.3,0.8,1.8c0.5,0.5,1.1,0.7,2,0.7c0.7,0,1.3-0.2,1.7-0.5c0.4-0.4,0.6-0.8,0.6-1.4c0-0.6-0.2-1.1-0.6-1.4
			c-0.4-0.3-0.9-0.6-1.5-0.8c-0.6-0.2-1.3-0.4-2-0.7c-1.1-0.4-2-0.9-2.6-1.5c-0.6-0.6-0.9-1.5-0.9-2.5c0-0.9,0.2-1.6,0.6-2.3
			c0.4-0.6,1-1.1,1.8-1.5c0.8-0.4,1.6-0.5,2.6-0.5c1,0,1.9,0.2,2.6,0.5c0.8,0.4,1.4,0.9,1.8,1.5c0.4,0.6,0.7,1.4,0.7,2.3h-2.9
			c0-0.5-0.2-1-0.6-1.4c-0.4-0.4-0.9-0.6-1.6-0.6c-0.6,0-1.1,0.1-1.5,0.4c-0.4,0.3-0.6,0.7-0.6,1.3c0,0.5,0.2,0.9,0.5,1.2
			c0.3,0.3,0.7,0.5,1.3,0.7c0.5,0.2,1.2,0.4,1.8,0.6c0.7,0.3,1.4,0.5,2,0.9c0.6,0.3,1.1,0.8,1.5,1.4c0.4,0.6,0.6,1.3,0.6,2.2
			c0,0.8-0.2,1.5-0.6,2.2c-0.4,0.7-1,1.2-1.8,1.6C301.4,166.3,300.5,166.5,299.3,166.5z"/>
		<path class="st6" d="M459.4,189.4H187.2"/>
		<path class="st8" d="M459.4,189.4H191"/>
		<path class="st9" d="M187.7,189.4c0-0.9,0.7-1.6,1.6-1.6s1.6,0.7,1.6,1.6s-0.7,1.6-1.6,1.6S187.7,190.3,187.7,189.4z"/>
		<path class="st6" d="M395.7,357.5l-192.6-0.6"/>
		<path class="st8" d="M395.7,357.5l-188.8-0.6"/>
		<path class="st9" d="M203.6,356.9c0-0.9,0.7-1.6,1.6-1.6c0.9,0,1.6,0.7,1.6,1.6c0,0.9-0.7,1.6-1.6,1.6
			C204.3,358.5,203.6,357.8,203.6,356.9z"/>
		<path class="st10" d="M51.1,316.9h8.6v-8.6h3.5v8.6h8.6v3.5h-8.6v8.6h-3.5v-8.6h-8.6V316.9z"/>
		<path class="st6" d="M75.6,67h238.9v34.9H75.6L75.6,67z"/>
		<path class="st11" d="M252.8,95.5c-1.5,0-2.8-0.3-3.9-0.8s-1.9-1.3-2.5-2.2s-1-2-1.1-3.2h3.7c0.2,0.8,0.6,1.5,1.3,2.1
			c0.7,0.6,1.5,0.8,2.6,0.8c1.1,0,2-0.4,2.7-1.2c0.7-0.8,1-1.8,1-3c0-1.2-0.3-2.2-1-2.9c-0.7-0.7-1.6-1.1-2.6-1.1
			c-0.9,0-1.7,0.2-2.3,0.7c-0.6,0.4-1.1,1-1.4,1.6h-3.6l1.8-11.7h11.4v3.3h-8.6l-0.9,4.8c0.4-0.5,1-0.9,1.8-1.2
			c0.8-0.3,1.6-0.5,2.5-0.5c1.5,0,2.7,0.3,3.7,1c1,0.7,1.7,1.5,2.2,2.6c0.5,1.1,0.8,2.2,0.8,3.5c0,1.4-0.3,2.7-0.9,3.8
			s-1.5,2-2.6,2.6C255.5,95.1,254.2,95.5,252.8,95.5z M271.3,95.5c-1.5,0-2.8-0.3-3.9-0.8c-1.1-0.6-1.9-1.3-2.5-2.3
			c-0.6-1-1.1-2-1.4-3.2s-0.4-2.4-0.4-3.6c0-2.3,0.3-4.3,1-6c0.6-1.7,1.6-3,2.8-3.9c1.2-0.9,2.7-1.4,4.4-1.4c1.4,0,2.6,0.3,3.6,0.8
			c1,0.6,1.8,1.3,2.3,2.2c0.6,0.9,0.9,1.9,1,2.9h-3.5c-0.2-0.9-0.6-1.6-1.2-2.1c-0.6-0.5-1.3-0.7-2.2-0.7c-1.3,0-2.4,0.6-3.2,1.8
			c-0.8,1.2-1.2,3-1.3,5.5c0.5-0.8,1.2-1.5,2.1-2c0.9-0.5,2-0.8,3.1-0.8c1.1,0,2.2,0.3,3.2,0.8c1,0.5,1.8,1.3,2.4,2.3
			c0.6,1,0.9,2.2,0.9,3.5c0,1.2-0.3,2.4-0.9,3.4c-0.6,1.1-1.4,1.9-2.5,2.5C274,95.1,272.7,95.5,271.3,95.5z M271.1,92.2
			c1.1,0,2-0.3,2.7-1c0.7-0.7,1.1-1.5,1.1-2.6c0-1.1-0.4-2-1.1-2.6c-0.7-0.7-1.6-1-2.8-1c-0.7,0-1.4,0.2-2,0.5
			c-0.6,0.3-1,0.8-1.4,1.3c-0.3,0.5-0.5,1.1-0.5,1.8c0,1.1,0.4,1.9,1.1,2.6C269.1,91.9,270,92.2,271.1,92.2z M286.2,84.7
			c-0.9,0-1.8-0.2-2.6-0.6c-0.8-0.4-1.4-1-1.8-1.8c-0.4-0.8-0.7-1.7-0.7-2.8c0-1.1,0.2-2,0.7-2.8c0.4-0.8,1.1-1.4,1.8-1.8
			c0.8-0.4,1.6-0.6,2.6-0.6c0.9,0,1.8,0.2,2.5,0.6s1.3,1,1.8,1.8c0.5,0.8,0.7,1.7,0.7,2.8c0,1.1-0.2,2-0.7,2.8
			c-0.4,0.8-1.1,1.4-1.8,1.8C288,84.5,287.1,84.7,286.2,84.7z M285.1,95.1l11.6-20.5h3.7l-11.6,20.5H285.1z M286.2,82.1
			c0.6,0,1-0.2,1.5-0.7c0.4-0.4,0.6-1.1,0.6-2c0-0.9-0.2-1.5-0.6-2c-0.4-0.4-0.9-0.7-1.5-0.7c-0.6,0-1.1,0.2-1.5,0.7
			c-0.4,0.4-0.6,1.1-0.6,2c0,0.9,0.2,1.5,0.6,2C285.1,81.8,285.6,82.1,286.2,82.1z M299.3,95.5c-0.9,0-1.8-0.2-2.6-0.6
			c-0.8-0.4-1.4-1-1.8-1.8c-0.4-0.8-0.7-1.7-0.7-2.8c0-1.1,0.2-2,0.7-2.8c0.4-0.8,1.1-1.4,1.8-1.8c0.8-0.4,1.6-0.6,2.6-0.6
			c0.9,0,1.8,0.2,2.5,0.6c0.8,0.4,1.3,1,1.8,1.8c0.5,0.8,0.7,1.7,0.7,2.8c0,1.1-0.2,2-0.7,2.8c-0.4,0.8-1,1.4-1.8,1.8
			C301.1,95.3,300.3,95.5,299.3,95.5z M299.3,92.8c0.6,0,1.1-0.2,1.5-0.7c0.4-0.4,0.6-1.1,0.6-2c0-0.9-0.2-1.5-0.6-2
			c-0.4-0.5-0.9-0.7-1.5-0.7c-0.6,0-1.1,0.2-1.5,0.7c-0.4,0.4-0.6,1.1-0.6,2c0,0.9,0.2,1.5,0.6,2C298.2,92.6,298.7,92.8,299.3,92.8z
			"/>
		<path class="st6" d="M649,82h202v34.9H649V82z"/>
		<path class="st12" d="M667.3,110.5c-1.4,0-2.7-0.2-3.8-0.8c-1.1-0.5-2-1.2-2.7-2.1c-0.7-0.9-1-2-1-3.2c0-1.2,0.3-2.3,1-3.3
			s1.5-1.6,2.6-2c-0.9-0.4-1.7-1-2.2-1.8c-0.5-0.8-0.8-1.6-0.8-2.6c0-1,0.3-1.9,0.8-2.7c0.5-0.8,1.3-1.5,2.4-2
			c1.1-0.5,2.3-0.8,3.9-0.8c1.5,0,2.8,0.3,3.8,0.8c1,0.5,1.8,1.2,2.3,2c0.5,0.8,0.8,1.7,0.8,2.7c0,0.9-0.3,1.8-0.8,2.6
			c-0.6,0.8-1.3,1.4-2.2,1.8c1.1,0.4,2,1.1,2.6,2c0.6,0.9,1,2,1,3.3c0,1.2-0.3,2.3-1,3.2c-0.7,0.9-1.6,1.6-2.7,2.1
			C669.9,110.2,668.7,110.5,667.3,110.5z M667.3,98c1,0,1.8-0.3,2.4-0.8c0.6-0.5,0.9-1.2,0.9-2c0-0.9-0.3-1.6-0.9-2.1
			c-0.6-0.5-1.4-0.8-2.4-0.8c-1.1,0-1.9,0.3-2.4,0.8c-0.6,0.5-0.8,1.2-0.8,2.1c0,0.8,0.3,1.5,0.9,2C665.4,97.7,666.2,98,667.3,98z
			 M667.3,107.3c1.2,0,2.2-0.3,2.8-0.9c0.6-0.6,1-1.4,1-2.3c0-1-0.3-1.8-1-2.4c-0.7-0.6-1.6-0.9-2.8-0.9c-1.2,0-2.1,0.3-2.8,0.9
			c-0.7,0.6-1,1.4-1,2.4c0,0.9,0.3,1.7,1,2.3C665,107,666,107.3,667.3,107.3z M686.9,110.5c-1.9,0-3.5-0.4-4.9-1.3
			c-1.3-0.9-2.4-2.1-3.1-3.7c-0.7-1.6-1.1-3.4-1.1-5.6c0-2.1,0.4-3.9,1.1-5.5c0.7-1.6,1.8-2.8,3.1-3.7c1.4-0.9,3-1.3,4.9-1.3
			c1.9,0,3.5,0.4,4.9,1.3c1.4,0.9,2.4,2.1,3.1,3.7c0.7,1.6,1.1,3.5,1.1,5.5c0,2.1-0.4,4-1.1,5.6c-0.7,1.6-1.8,2.8-3.1,3.7
			C690.4,110,688.8,110.5,686.9,110.5z M686.9,107.1c1.6,0,2.8-0.6,3.8-1.9c1-1.3,1.5-3.1,1.5-5.3s-0.5-4-1.5-5.3
			c-1-1.3-2.2-1.9-3.8-1.9c-1.6,0-2.8,0.6-3.8,1.9s-1.5,3.1-1.5,5.3s0.5,4,1.5,5.3S685.3,107.1,686.9,107.1z M703.5,99.7
			c-0.9,0-1.8-0.2-2.6-0.6c-0.8-0.4-1.4-1-1.8-1.8s-0.7-1.7-0.7-2.8c0-1.1,0.2-2,0.7-2.8s1.1-1.4,1.8-1.8c0.8-0.4,1.6-0.6,2.6-0.6
			c0.9,0,1.8,0.2,2.5,0.6s1.3,1,1.8,1.8c0.5,0.8,0.7,1.7,0.7,2.8c0,1.1-0.2,2-0.7,2.8c-0.4,0.8-1.1,1.4-1.8,1.8
			C705.3,99.5,704.5,99.7,703.5,99.7z M702.4,110.1L714,89.6h3.7l-11.6,20.5H702.4z M703.5,97.1c0.6,0,1-0.2,1.5-0.7
			c0.4-0.4,0.6-1.1,0.6-2c0-0.9-0.2-1.5-0.6-2c-0.4-0.4-0.9-0.7-1.5-0.7s-1.1,0.2-1.5,0.7c-0.4,0.4-0.6,1.1-0.6,2
			c0,0.9,0.2,1.5,0.6,2C702.5,96.9,703,97.1,703.5,97.1z M716.7,110.5c-0.9,0-1.8-0.2-2.6-0.6c-0.8-0.4-1.4-1-1.8-1.8
			s-0.7-1.7-0.7-2.8c0-1.1,0.2-2,0.7-2.8s1.1-1.4,1.8-1.8c0.8-0.4,1.6-0.6,2.6-0.6c0.9,0,1.8,0.2,2.5,0.6c0.8,0.4,1.3,1,1.8,1.8
			c0.5,0.8,0.7,1.7,0.7,2.8c0,1.1-0.2,2-0.7,2.8c-0.4,0.8-1,1.4-1.8,1.8C718.5,110.3,717.6,110.5,716.7,110.5z M716.7,107.9
			c0.6,0,1.1-0.2,1.5-0.7c0.4-0.4,0.6-1.1,0.6-2c0-0.9-0.2-1.5-0.6-2c-0.4-0.5-0.9-0.7-1.5-0.7s-1.1,0.2-1.5,0.7
			c-0.4,0.4-0.6,1.1-0.6,2c0,0.9,0.2,1.5,0.6,2C715.6,107.6,716.1,107.9,716.7,107.9z"/>
		<path class="st6" d="M75.6,257.5h238.9v34.9H75.6L75.6,257.5z"/>
		<path class="st13" d="M250.2,286c-1.5,0-2.8-0.3-3.9-0.8c-1.1-0.6-1.9-1.3-2.5-2.3c-0.6-1-1.1-2-1.4-3.2c-0.3-1.2-0.4-2.4-0.4-3.6
			c0-2.3,0.3-4.3,1-6c0.6-1.7,1.6-3,2.8-3.9c1.2-0.9,2.7-1.4,4.4-1.4c1.4,0,2.6,0.3,3.6,0.8c1,0.6,1.8,1.3,2.3,2.2
			c0.6,0.9,0.9,1.9,1,2.9h-3.5c-0.2-0.9-0.6-1.6-1.2-2.1c-0.6-0.5-1.3-0.7-2.2-0.7c-1.3,0-2.4,0.6-3.2,1.8c-0.8,1.2-1.2,3-1.3,5.5
			c0.5-0.8,1.2-1.5,2.1-2c0.9-0.5,2-0.8,3.1-0.8c1.1,0,2.2,0.3,3.2,0.8c1,0.5,1.8,1.3,2.4,2.3c0.6,1,0.9,2.2,0.9,3.5
			c0,1.2-0.3,2.4-0.9,3.4c-0.6,1.1-1.4,1.9-2.5,2.5C252.9,285.7,251.7,286,250.2,286z M250,282.8c1.1,0,2-0.3,2.7-1
			c0.7-0.7,1.1-1.5,1.1-2.6c0-1.1-0.4-2-1.1-2.6c-0.7-0.7-1.6-1-2.8-1c-0.7,0-1.4,0.2-2,0.5c-0.6,0.3-1,0.8-1.4,1.3
			c-0.3,0.5-0.5,1.1-0.5,1.8c0,1.1,0.4,1.9,1.1,2.6C248,282.4,248.9,282.8,250,282.8z M269.5,286c-1.9,0-3.5-0.4-4.9-1.3
			c-1.3-0.9-2.4-2.1-3.1-3.7c-0.7-1.6-1.1-3.4-1.1-5.6c0-2.1,0.4-3.9,1.1-5.5c0.7-1.6,1.8-2.8,3.1-3.7c1.4-0.9,3-1.3,4.9-1.3
			s3.5,0.4,4.9,1.3c1.4,0.9,2.4,2.1,3.1,3.7c0.7,1.6,1.1,3.5,1.1,5.5c0,2.1-0.4,4-1.1,5.6c-0.7,1.6-1.8,2.8-3.1,3.7
			C273,285.6,271.4,286,269.5,286z M269.5,282.6c1.6,0,2.8-0.6,3.8-1.9c1-1.3,1.5-3.1,1.5-5.3s-0.5-4-1.5-5.3
			c-1-1.3-2.2-1.9-3.8-1.9c-1.6,0-2.8,0.6-3.8,1.9s-1.5,3.1-1.5,5.3s0.5,4,1.5,5.3S268,282.6,269.5,282.6z M286.2,275.2
			c-0.9,0-1.8-0.2-2.6-0.6c-0.8-0.4-1.4-1-1.8-1.8c-0.4-0.8-0.7-1.7-0.7-2.8c0-1.1,0.2-2,0.7-2.8c0.4-0.8,1.1-1.4,1.8-1.8
			c0.8-0.4,1.6-0.6,2.6-0.6c0.9,0,1.8,0.2,2.5,0.6s1.3,1,1.8,1.8c0.5,0.8,0.7,1.7,0.7,2.8c0,1.1-0.2,2-0.7,2.8
			c-0.4,0.8-1.1,1.4-1.8,1.8C288,275,287.1,275.2,286.2,275.2z M285.1,285.7l11.6-20.5h3.7l-11.6,20.5H285.1z M286.2,272.6
			c0.6,0,1-0.2,1.5-0.7c0.4-0.4,0.6-1.1,0.6-2c0-0.9-0.2-1.5-0.6-2c-0.4-0.4-0.9-0.7-1.5-0.7c-0.6,0-1.1,0.2-1.5,0.7
			c-0.4,0.4-0.6,1.1-0.6,2c0,0.9,0.2,1.5,0.6,2C285.1,272.4,285.6,272.6,286.2,272.6z M299.3,286c-0.9,0-1.8-0.2-2.6-0.6
			c-0.8-0.4-1.4-1-1.8-1.8c-0.4-0.8-0.7-1.7-0.7-2.8c0-1.1,0.2-2,0.7-2.8c0.4-0.8,1.1-1.4,1.8-1.8c0.8-0.4,1.6-0.6,2.6-0.6
			c0.9,0,1.8,0.2,2.5,0.6c0.8,0.4,1.3,1,1.8,1.8c0.5,0.8,0.7,1.7,0.7,2.8c0,1.1-0.2,2-0.7,2.8c-0.4,0.8-1,1.4-1.8,1.8
			C301.1,285.8,300.3,286,299.3,286z M299.3,283.4c0.6,0,1.1-0.2,1.5-0.7c0.4-0.4,0.6-1.1,0.6-2c0-0.9-0.2-1.5-0.6-2
			c-0.4-0.5-0.9-0.7-1.5-0.7c-0.6,0-1.1,0.2-1.5,0.7c-0.4,0.4-0.6,1.1-0.6,2c0,0.9,0.2,1.5,0.6,2
			C298.2,283.2,298.7,283.4,299.3,283.4z"/>
		<path class="st6" d="M645.5,246h238.9v34.9H645.5V246z"/>
		<path class="st14" d="M657.6,274.1l7.7-17.3h-10.1v-3.2h14v2.7l-7.7,17.9H657.6z M680.3,274.5c-1.9,0-3.5-0.4-4.9-1.3
			c-1.3-0.9-2.4-2.1-3.1-3.7c-0.7-1.6-1.1-3.4-1.1-5.6c0-2.1,0.4-3.9,1.1-5.5c0.7-1.6,1.8-2.8,3.1-3.7c1.4-0.9,3-1.3,4.9-1.3
			s3.5,0.4,4.9,1.3c1.4,0.9,2.4,2.1,3.1,3.7c0.7,1.6,1.1,3.5,1.1,5.5c0,2.1-0.4,4-1.1,5.6c-0.7,1.6-1.8,2.8-3.1,3.7
			C683.8,274,682.2,274.5,680.3,274.5z M680.3,271.1c1.6,0,2.8-0.6,3.8-1.9c1-1.3,1.5-3.1,1.5-5.3c0-2.2-0.5-4-1.5-5.3
			c-1-1.3-2.2-1.9-3.8-1.9c-1.6,0-2.8,0.6-3.8,1.9s-1.5,3.1-1.5,5.3s0.5,4,1.5,5.3S678.8,271.1,680.3,271.1z M693.1,274.3
			c-0.7,0-1.2-0.2-1.7-0.6c-0.4-0.4-0.7-0.9-0.7-1.6c0-0.6,0.2-1.2,0.7-1.6c0.4-0.4,1-0.6,1.7-0.6c0.7,0,1.2,0.2,1.7,0.6
			c0.4,0.4,0.7,1,0.7,1.6c0,0.6-0.2,1.1-0.7,1.6C694.3,274.1,693.8,274.3,693.1,274.3z M706,274.5c-1.5,0-2.8-0.3-3.9-0.8
			s-1.9-1.3-2.5-2.2s-1-2-1.1-3.2h3.7c0.2,0.8,0.6,1.5,1.3,2.1c0.7,0.6,1.5,0.8,2.6,0.8c1.1,0,2-0.4,2.7-1.2c0.7-0.8,1-1.8,1-3
			c0-1.2-0.3-2.2-1-2.9c-0.7-0.7-1.6-1.1-2.6-1.1c-0.9,0-1.7,0.2-2.3,0.7c-0.6,0.4-1.1,1-1.4,1.6h-3.6l1.8-11.7h11.4v3.3h-8.6
			l-0.9,4.8c0.4-0.5,1-0.9,1.8-1.2c0.8-0.3,1.6-0.5,2.5-0.5c1.5,0,2.7,0.3,3.7,1c1,0.7,1.7,1.5,2.2,2.6c0.5,1.1,0.8,2.2,0.8,3.5
			c0,1.4-0.3,2.7-0.9,3.8s-1.5,2-2.6,2.6S707.4,274.5,706,274.5z M721,263.7c-0.9,0-1.8-0.2-2.6-0.6c-0.8-0.4-1.4-1-1.8-1.8
			c-0.4-0.8-0.7-1.7-0.7-2.8c0-1.1,0.2-2,0.7-2.8c0.4-0.8,1.1-1.4,1.8-1.8c0.8-0.4,1.6-0.6,2.6-0.6c0.9,0,1.8,0.2,2.5,0.6
			c0.7,0.4,1.3,1,1.8,1.8c0.5,0.8,0.7,1.7,0.7,2.8c0,1.1-0.2,2-0.7,2.8c-0.4,0.8-1.1,1.4-1.8,1.8C722.8,263.5,721.9,263.7,721,263.7
			z M719.9,274.1l11.6-20.5h3.7l-11.6,20.5H719.9z M721,261.1c0.6,0,1-0.2,1.5-0.7c0.4-0.4,0.6-1.1,0.6-2c0-0.9-0.2-1.5-0.6-2
			c-0.4-0.4-0.9-0.7-1.5-0.7c-0.6,0-1.1,0.2-1.5,0.7c-0.4,0.4-0.6,1.1-0.6,2c0,0.9,0.2,1.5,0.6,2C719.9,260.9,720.4,261.1,721,261.1
			z M734.1,274.5c-0.9,0-1.8-0.2-2.6-0.6c-0.8-0.4-1.4-1-1.8-1.8c-0.4-0.8-0.7-1.7-0.7-2.8c0-1.1,0.2-2,0.7-2.8
			c0.4-0.8,1.1-1.4,1.8-1.8c0.8-0.4,1.6-0.6,2.6-0.6c0.9,0,1.8,0.2,2.5,0.6c0.7,0.4,1.3,1,1.8,1.8c0.5,0.8,0.7,1.7,0.7,2.8
			c0,1.1-0.2,2-0.7,2.8c-0.4,0.8-1,1.4-1.8,1.8C736,274.3,735.1,274.5,734.1,274.5z M734.1,271.9c0.6,0,1.1-0.2,1.5-0.7
			c0.4-0.4,0.6-1.1,0.6-2c0-0.9-0.2-1.5-0.6-2c-0.4-0.5-0.9-0.7-1.5-0.7c-0.6,0-1.1,0.2-1.5,0.7c-0.4,0.4-0.6,1.1-0.6,2
			c0,0.9,0.2,1.5,0.6,2C733.1,271.6,733.6,271.9,734.1,271.9z"/>
		<path class="st6" d="M756.1,127.4l-268.5,0.9"/>
		<path class="st8" d="M752.3,127.4l-264.7,0.8"/>
		<path class="st9" d="M755.6,127.4c0,0.9-0.7,1.6-1.6,1.7c-0.9,0-1.6-0.7-1.7-1.6c0-0.9,0.7-1.6,1.6-1.7
			C754.9,125.8,755.6,126.5,755.6,127.4z"/>
		<path class="st6" d="M480.1,326.6h141.8v53.9h141.8"/>
		<path class="st8" d="M480.1,326.6h141.8v53.9h138"/>
		<path class="st9" d="M763.1,380.5c0,0.9-0.7,1.6-1.6,1.6s-1.6-0.7-1.6-1.6s0.7-1.6,1.6-1.6S763.1,379.6,763.1,380.5z"/>
		<path class="st6" d="M60,291h254.5v55.4H60V291z"/>
		<path class="st7" d="M110.1,313.2l5.5-14.9h3.1l5.5,14.9h-2.9l-1.2-3.5h-5.8l-1.2,3.5H110.1z M114.9,307.6h4.3l-2.2-6.2
			L114.9,307.6z M126,313.2v-14.9h5.5c1.2,0,2.2,0.2,2.9,0.6c0.8,0.4,1.4,1,1.8,1.7c0.4,0.7,0.6,1.4,0.6,2.3c0,0.9-0.2,1.8-0.7,2.5
			s-1.2,1.3-2.2,1.6l3.1,6.2h-3.1l-2.8-5.9h-2.2v5.9H126z M128.7,305.3h2.6c0.9,0,1.6-0.2,2-0.7c0.4-0.4,0.6-1,0.6-1.8
			s-0.2-1.3-0.6-1.7c-0.4-0.4-1.1-0.6-2-0.6h-2.5V305.3z M139.3,313.2v-14.9h9.8v2.2h-7v4.1h6.4v2.1H142v4.3h7v2.2H139.3z
			 M156.7,313.2v-14.9h2.7v14.9H156.7z M162.3,313.2v-14.9h2.7l7,10.5v-10.5h2.7v14.9h-2.7l-7-10.5v10.5H162.3z M181.2,313.2v-12.7
			h-4.3v-2.2h11.5v2.2h-4.4v12.7H181.2z M190.3,313.2v-14.9h9.8v2.2h-7v4.1h6.4v2.1H193v4.3h7v2.2H190.3z M202.6,313.2v-14.9h5.5
			c1.2,0,2.2,0.2,2.9,0.6c0.8,0.4,1.4,1,1.8,1.7c0.4,0.7,0.6,1.4,0.6,2.3c0,0.9-0.2,1.8-0.7,2.5s-1.2,1.3-2.2,1.6l3.1,6.2h-3.1
			l-2.8-5.9h-2.2v5.9H202.6z M205.4,305.3h2.6c0.9,0,1.6-0.2,2-0.7c0.4-0.4,0.6-1,0.6-1.8s-0.2-1.3-0.6-1.7c-0.4-0.4-1.1-0.6-2-0.6
			h-2.5V305.3z M215.9,313.2v-14.9h9.8v2.2h-7v4.1h6.4v2.1h-6.4v4.3h7v2.2H215.9z M233.3,313.4c-1.1,0-2.1-0.2-2.9-0.6
			c-0.8-0.4-1.5-0.9-2-1.6c-0.5-0.7-0.7-1.6-0.7-2.6h2.9c0,0.7,0.3,1.3,0.8,1.8c0.5,0.5,1.1,0.7,2,0.7c0.7,0,1.3-0.2,1.7-0.5
			c0.4-0.4,0.6-0.8,0.6-1.4c0-0.6-0.2-1.1-0.6-1.4s-0.9-0.6-1.5-0.8c-0.6-0.2-1.3-0.4-2-0.7c-1.1-0.4-2-0.9-2.6-1.5
			c-0.6-0.6-0.9-1.5-0.9-2.5c0-0.9,0.2-1.6,0.6-2.3c0.4-0.6,1-1.1,1.8-1.5c0.8-0.4,1.6-0.5,2.6-0.5c1,0,1.9,0.2,2.6,0.5
			c0.8,0.4,1.4,0.9,1.8,1.5c0.4,0.6,0.7,1.4,0.7,2.3h-2.9c0-0.5-0.2-1-0.6-1.4c-0.4-0.4-0.9-0.6-1.6-0.6c-0.6,0-1.1,0.1-1.5,0.4
			c-0.4,0.3-0.6,0.7-0.6,1.3c0,0.5,0.2,0.9,0.5,1.2c0.3,0.3,0.7,0.5,1.3,0.7c0.5,0.2,1.2,0.4,1.8,0.6c0.7,0.2,1.4,0.5,2,0.9
			c0.6,0.3,1.1,0.8,1.5,1.4c0.4,0.6,0.6,1.3,0.6,2.2c0,0.8-0.2,1.5-0.6,2.2c-0.4,0.7-1,1.2-1.8,1.6
			C235.4,313.2,234.5,313.4,233.3,313.4z M244.3,313.2v-12.7h-4.3v-2.2h11.5v2.2H247v12.7H244.3z M253.4,313.2v-14.9h9.7v2.2h-7v4.1
			h6.4v2.1h-6.4v4.3h7v2.2H253.4z M265.7,313.2v-14.9h5.1c1.8,0,3.2,0.3,4.3,0.9c1.1,0.6,2,1.5,2.5,2.6c0.6,1.1,0.8,2.4,0.8,3.9
			c0,1.5-0.3,2.8-0.8,3.9c-0.5,1.1-1.4,2-2.5,2.6c-1.1,0.6-2.6,0.9-4.3,0.9H265.7z M268.5,310.8h2.2c1.2,0,2.2-0.2,3-0.6
			c0.7-0.4,1.2-1,1.6-1.8c0.3-0.8,0.5-1.7,0.5-2.8c0-1.1-0.2-2-0.5-2.8c-0.3-0.8-0.8-1.4-1.6-1.8c-0.7-0.4-1.7-0.6-3-0.6h-2.2V310.8
			z M286,313.2v-14.9h2.7v14.9H286z M291.6,313.2v-14.9h2.7l7,10.5v-10.5h2.7v14.9h-2.7l-7-10.5v10.5H291.6z"/>
		<path class="st7" d="M119.5,339.4c-1.1,0-2.1-0.2-2.9-0.6c-0.8-0.4-1.5-0.9-2-1.6c-0.5-0.7-0.7-1.6-0.7-2.6h2.9
			c0,0.7,0.3,1.3,0.8,1.8c0.5,0.5,1.1,0.7,2,0.7c0.7,0,1.3-0.2,1.7-0.5c0.4-0.4,0.6-0.8,0.6-1.4c0-0.6-0.2-1.1-0.6-1.4
			c-0.4-0.3-0.9-0.6-1.5-0.8c-0.6-0.2-1.3-0.4-2-0.7c-1.1-0.4-2-0.9-2.6-1.5c-0.6-0.6-0.9-1.5-0.9-2.5c0-0.9,0.2-1.6,0.6-2.3
			c0.4-0.6,1-1.1,1.8-1.5c0.7-0.4,1.6-0.5,2.6-0.5c1,0,1.9,0.2,2.6,0.5c0.8,0.4,1.4,0.9,1.8,1.5c0.4,0.6,0.7,1.4,0.7,2.3h-2.9
			c0-0.5-0.2-1-0.6-1.4c-0.4-0.4-0.9-0.6-1.6-0.6c-0.6,0-1.1,0.1-1.5,0.4c-0.4,0.3-0.6,0.7-0.6,1.3c0,0.5,0.2,0.9,0.5,1.2
			c0.3,0.3,0.7,0.5,1.3,0.7c0.5,0.2,1.2,0.4,1.8,0.6c0.7,0.2,1.4,0.5,2,0.9c0.6,0.3,1.1,0.8,1.5,1.4c0.4,0.6,0.6,1.3,0.6,2.2
			c0,0.8-0.2,1.5-0.6,2.2c-0.4,0.7-1,1.2-1.8,1.6C121.6,339.2,120.6,339.4,119.5,339.4z M127.1,339.2v-14.9h9.8v2.2h-7v4.1h6.4v2.1
			h-6.4v4.3h7v2.2H127.1z M138.5,339.2l5.5-14.9h3.1l5.5,14.9h-2.9l-1.2-3.5h-5.8l-1.2,3.5H138.5z M143.3,333.6h4.3l-2.2-6.2
			L143.3,333.6z M159.5,339.4c-1.1,0-2.1-0.2-2.9-0.6c-0.8-0.4-1.5-0.9-2-1.6c-0.5-0.7-0.7-1.6-0.7-2.6h2.9c0,0.7,0.3,1.3,0.8,1.8
			c0.5,0.5,1.1,0.7,2,0.7c0.7,0,1.3-0.2,1.7-0.5c0.4-0.4,0.6-0.8,0.6-1.4c0-0.6-0.2-1.1-0.6-1.4s-0.9-0.6-1.5-0.8
			c-0.6-0.2-1.3-0.4-2-0.7c-1.1-0.4-2-0.9-2.6-1.5s-0.9-1.5-0.9-2.5c0-0.9,0.2-1.6,0.6-2.3c0.4-0.6,1-1.1,1.8-1.5
			c0.8-0.4,1.6-0.5,2.6-0.5s1.9,0.2,2.6,0.5c0.8,0.4,1.4,0.9,1.8,1.5c0.4,0.6,0.7,1.4,0.7,2.3h-2.9c0-0.5-0.2-1-0.6-1.4
			c-0.4-0.4-0.9-0.6-1.6-0.6c-0.6,0-1.1,0.1-1.5,0.4c-0.4,0.3-0.6,0.7-0.6,1.3c0,0.5,0.2,0.9,0.5,1.2c0.3,0.3,0.7,0.5,1.3,0.7
			c0.5,0.2,1.2,0.4,1.8,0.6c0.7,0.2,1.4,0.5,2,0.9s1.1,0.8,1.5,1.4c0.4,0.6,0.6,1.3,0.6,2.2c0,0.8-0.2,1.5-0.6,2.2
			c-0.4,0.7-1,1.2-1.8,1.6C161.6,339.2,160.6,339.4,159.5,339.4z M174.1,339.4c-1.5,0-2.8-0.3-3.9-1c-1.1-0.7-2-1.6-2.6-2.7
			c-0.6-1.2-1-2.5-1-4c0-1.5,0.3-2.9,1-4s1.5-2.1,2.6-2.7c1.1-0.7,2.4-1,3.9-1c1.5,0,2.8,0.3,3.9,1c1.1,0.7,2,1.6,2.6,2.7
			c0.6,1.2,0.9,2.5,0.9,4c0,1.5-0.3,2.9-0.9,4c-0.6,1.2-1.5,2.1-2.6,2.7C176.9,339.1,175.6,339.4,174.1,339.4z M174.1,337
			c1.4,0,2.5-0.5,3.4-1.4c0.8-0.9,1.3-2.2,1.3-3.9c0-1.6-0.4-2.9-1.3-3.9c-0.8-0.9-2-1.4-3.4-1.4c-1.4,0-2.6,0.5-3.4,1.4
			s-1.3,2.2-1.3,3.9c0,1.6,0.4,2.9,1.3,3.9S172.7,337,174.1,337z M184,339.2v-14.9h2.7l7,10.5v-10.5h2.7v14.9h-2.7l-7-10.5v10.5H184
			z M198.4,339.2l5.5-14.9h3.1l5.5,14.9h-2.9l-1.2-3.5h-5.8l-1.2,3.5H198.4z M203.3,333.6h4.3l-2.2-6.2L203.3,333.6z M214.3,339.2
			v-14.9h2.7V337h6.6v2.1H214.3z M231.2,339.2v-14.9h9.8v2.2h-7v4.1h6.4v2.1h-6.4v4.3h7v2.2H231.2z M242.5,339.2l5.5-14.9h3.1
			l5.5,14.9h-2.9l-1.2-3.5h-5.8l-1.2,3.5H242.5z M247.4,333.6h4.3l-2.2-6.2L247.4,333.6z M260.3,339.2v-12.7H256v-2.2h11.5v2.2h-4.4
			v12.7H260.3z M269.5,339.2v-14.9h2.7v14.9H269.5z M275.1,339.2v-14.9h2.7l7,10.5v-10.5h2.7v14.9h-2.7l-7-10.5v10.5H275.1z
			 M297,339.4c-1.4,0-2.7-0.3-3.7-1c-1.1-0.6-1.9-1.5-2.5-2.7c-0.6-1.1-0.9-2.5-0.9-4c0-1.5,0.3-2.9,0.9-4.1
			c0.6-1.2,1.5-2.1,2.6-2.8c1.1-0.7,2.5-1,4-1c1.8,0,3.2,0.4,4.3,1.3c1.2,0.8,1.9,2,2.2,3.5h-3c-0.2-0.7-0.6-1.2-1.2-1.6
			c-0.6-0.4-1.4-0.6-2.3-0.6c-1.5,0-2.6,0.5-3.5,1.4c-0.8,0.9-1.2,2.2-1.2,3.9c0,1.6,0.4,2.9,1.2,3.8s1.9,1.4,3.3,1.4
			c1.4,0,2.4-0.4,3.1-1.1c0.7-0.7,1.1-1.7,1.2-2.9h-3.8V331h6.5v8.2h-2.5l-0.2-2c-0.5,0.7-1.1,1.3-1.8,1.7
			C299.1,339.2,298.1,339.4,297,339.4z"/>
		<path class="st6" d="M649,144.9h254.5v55.4H649V144.9z"/>
		<path class="st7" d="M666.5,154.4c-1.5,0-2.8-0.3-3.9-1c-1.1-0.7-2-1.6-2.6-2.7c-0.6-1.2-1-2.5-1-4s0.3-2.9,1-4
			c0.6-1.2,1.5-2.1,2.6-2.7c1.1-0.7,2.4-1,3.9-1c1.5,0,2.8,0.3,3.9,1c1.1,0.7,2,1.6,2.6,2.7s0.9,2.5,0.9,4s-0.3,2.9-0.9,4
			c-0.6,1.2-1.5,2.1-2.6,2.7C669.3,154,668,154.4,666.5,154.4z M666.5,151.9c1.4,0,2.5-0.5,3.4-1.4s1.3-2.2,1.3-3.9
			s-0.4-2.9-1.3-3.9s-2-1.4-3.4-1.4c-1.4,0-2.6,0.5-3.4,1.4c-0.9,0.9-1.3,2.2-1.3,3.9s0.4,2.9,1.3,3.9
			C663.9,151.4,665.1,151.9,666.5,151.9z M676.4,154.1v-14.9h9.6v2.2h-6.9v4.2h5.6v2.1h-5.6v6.4H676.4z M698.9,154.4
			c-1.1,0-2.1-0.2-3-0.6c-0.9-0.4-1.6-1.1-2.1-2c-0.5-0.9-0.8-2-0.8-3.4v-9.2h2.7v9.2c0,1.2,0.3,2,0.8,2.6s1.3,0.9,2.3,0.9
			c1,0,1.8-0.3,2.3-0.9c0.6-0.6,0.9-1.4,0.9-2.6v-9.2h2.7v9.2c0,1.4-0.3,2.5-0.8,3.4c-0.5,0.9-1.3,1.5-2.2,2
			C701,154.2,700,154.4,698.9,154.4z M712.8,154.4c-1.1,0-2.1-0.2-2.9-0.6c-0.8-0.4-1.5-0.9-2-1.6c-0.5-0.7-0.7-1.6-0.7-2.6h2.9
			c0,0.7,0.3,1.3,0.8,1.8c0.5,0.5,1.1,0.7,2,0.7c0.7,0,1.3-0.2,1.7-0.5c0.4-0.4,0.6-0.8,0.6-1.4c0-0.6-0.2-1.1-0.6-1.4
			c-0.4-0.3-0.9-0.6-1.5-0.8c-0.6-0.2-1.3-0.4-2-0.7c-1.1-0.4-2-0.9-2.6-1.5c-0.6-0.6-0.9-1.5-0.9-2.5c0-0.9,0.2-1.6,0.6-2.3
			c0.4-0.6,1-1.1,1.8-1.5c0.8-0.4,1.6-0.5,2.6-0.5c1,0,1.9,0.2,2.6,0.5c0.8,0.4,1.4,0.9,1.8,1.5c0.4,0.6,0.7,1.4,0.7,2.3h-2.9
			c0-0.5-0.2-1-0.6-1.4c-0.4-0.4-0.9-0.6-1.6-0.6c-0.6,0-1.1,0.1-1.5,0.4c-0.4,0.3-0.6,0.7-0.6,1.3c0,0.5,0.2,0.9,0.5,1.2
			c0.3,0.3,0.7,0.5,1.3,0.7c0.5,0.2,1.2,0.4,1.8,0.6c0.7,0.2,1.4,0.5,2,0.9c0.6,0.3,1.1,0.8,1.5,1.4c0.4,0.6,0.6,1.3,0.6,2.2
			c0,0.8-0.2,1.5-0.6,2.2c-0.4,0.7-1,1.2-1.8,1.6C714.9,154.2,714,154.4,712.8,154.4z M720.5,154.1v-14.9h9.8v2.2h-7v4.1h6.4v2.1
			h-6.4v4.3h7v2.2H720.5z M732.8,154.1v-14.9h5.5c1.2,0,2.2,0.2,2.9,0.6c0.8,0.4,1.4,1,1.8,1.7c0.4,0.7,0.6,1.4,0.6,2.3
			c0,0.9-0.2,1.8-0.7,2.5s-1.2,1.3-2.2,1.6l3.1,6.2h-3.1l-2.8-5.9h-2.2v5.9H732.8z M735.5,146.2h2.6c0.9,0,1.6-0.2,2-0.7
			c0.4-0.4,0.6-1,0.6-1.8s-0.2-1.3-0.6-1.7c-0.4-0.4-1.1-0.6-2-0.6h-2.5V146.2z M751.2,154.4c-1.1,0-2.1-0.2-2.9-0.6
			c-0.8-0.4-1.5-0.9-2-1.6c-0.5-0.7-0.7-1.6-0.7-2.6h2.9c0,0.7,0.3,1.3,0.8,1.8c0.5,0.5,1.1,0.7,2,0.7c0.7,0,1.3-0.2,1.7-0.5
			c0.4-0.4,0.6-0.8,0.6-1.4c0-0.6-0.2-1.1-0.6-1.4c-0.4-0.3-0.9-0.6-1.5-0.8c-0.6-0.2-1.3-0.4-2-0.7c-1.1-0.4-2-0.9-2.6-1.5
			c-0.6-0.6-0.9-1.5-0.9-2.5c0-0.9,0.2-1.6,0.6-2.3c0.4-0.6,1-1.1,1.8-1.5c0.8-0.4,1.6-0.5,2.6-0.5c1,0,1.9,0.2,2.6,0.5
			c0.8,0.4,1.4,0.9,1.8,1.5c0.4,0.6,0.7,1.4,0.7,2.3h-2.9c0-0.5-0.2-1-0.6-1.4c-0.4-0.4-0.9-0.6-1.6-0.6c-0.6,0-1.1,0.1-1.5,0.4
			c-0.4,0.3-0.6,0.7-0.6,1.3c0,0.5,0.2,0.9,0.5,1.2c0.3,0.3,0.7,0.5,1.3,0.7c0.5,0.2,1.2,0.4,1.8,0.6c0.7,0.2,1.4,0.5,2,0.9
			c0.6,0.3,1.1,0.8,1.5,1.4c0.4,0.6,0.6,1.3,0.6,2.2c0,0.8-0.2,1.5-0.6,2.2c-0.4,0.7-1,1.2-1.8,1.6
			C753.3,154.2,752.3,154.4,751.2,154.4z M770.6,154.4c-1.5,0-2.8-0.3-3.9-1c-1.1-0.6-1.9-1.5-2.5-2.7c-0.6-1.2-0.9-2.5-0.9-4
			s0.3-2.9,0.9-4c0.6-1.2,1.4-2.1,2.5-2.7c1.1-0.7,2.4-1,3.9-1c1.8,0,3.3,0.4,4.4,1.3c1.1,0.9,1.9,2.1,2.2,3.7h-3
			c-0.2-0.8-0.6-1.4-1.2-1.9c-0.6-0.5-1.4-0.7-2.4-0.7c-1.4,0-2.5,0.5-3.2,1.4c-0.8,0.9-1.2,2.2-1.2,3.9s0.4,2.9,1.2,3.8
			s1.9,1.4,3.2,1.4c1,0,1.8-0.2,2.4-0.6c0.6-0.4,1-1,1.2-1.8h3c-0.3,1.5-1,2.7-2.2,3.6C773.9,153.9,772.4,154.4,770.6,154.4z
			 M786.6,154.4c-1.5,0-2.8-0.3-3.9-1c-1.1-0.7-2-1.6-2.6-2.7c-0.6-1.2-1-2.5-1-4s0.3-2.9,1-4s1.5-2.1,2.6-2.7s2.4-1,3.9-1
			c1.5,0,2.8,0.3,3.9,1c1.1,0.7,2,1.6,2.6,2.7s0.9,2.5,0.9,4s-0.3,2.9-0.9,4c-0.6,1.2-1.5,2.1-2.6,2.7
			C789.4,154,788.1,154.4,786.6,154.4z M786.6,151.9c1.4,0,2.5-0.5,3.4-1.4s1.3-2.2,1.3-3.9s-0.4-2.9-1.3-3.9s-2-1.4-3.4-1.4
			c-1.4,0-2.6,0.5-3.4,1.4s-1.3,2.2-1.3,3.9s0.4,2.9,1.3,3.9S785.2,151.9,786.6,151.9z M803.5,154.4c-1.5,0-2.8-0.3-3.9-1
			c-1.1-0.7-2-1.6-2.6-2.7c-0.6-1.2-1-2.5-1-4s0.3-2.9,1-4s1.5-2.1,2.6-2.7s2.4-1,3.9-1c1.5,0,2.8,0.3,3.9,1c1.1,0.7,2,1.6,2.6,2.7
			s0.9,2.5,0.9,4s-0.3,2.9-0.9,4c-0.6,1.2-1.5,2.1-2.6,2.7C806.2,154,804.9,154.4,803.5,154.4z M803.5,151.9c1.4,0,2.5-0.5,3.4-1.4
			s1.3-2.2,1.3-3.9s-0.4-2.9-1.3-3.9s-2-1.4-3.4-1.4c-1.4,0-2.6,0.5-3.4,1.4s-1.3,2.2-1.3,3.9s0.4,2.9,1.3,3.9
			S802,151.9,803.5,151.9z M813.3,154.1v-14.9h2.7v6l5.5-6h3.4l-5.5,5.9l5.6,9h-3.3l-4.3-6.9l-1.4,1.5v5.4H813.3z"/>
		<path class="st7" d="M664.6,180.4c-1.1,0-2.1-0.2-2.9-0.6c-0.8-0.4-1.5-0.9-2-1.6c-0.5-0.7-0.7-1.6-0.7-2.6h2.9
			c0,0.7,0.3,1.3,0.8,1.8c0.5,0.5,1.1,0.7,2,0.7c0.7,0,1.3-0.2,1.7-0.5c0.4-0.4,0.6-0.8,0.6-1.4c0-0.6-0.2-1.1-0.6-1.4
			s-0.9-0.6-1.5-0.8c-0.6-0.2-1.3-0.4-2-0.7c-1.1-0.4-2-0.9-2.6-1.5c-0.6-0.6-0.9-1.5-0.9-2.5c0-0.9,0.2-1.6,0.6-2.3
			c0.4-0.6,1-1.1,1.8-1.5c0.8-0.4,1.6-0.5,2.6-0.5c1,0,1.9,0.2,2.6,0.5c0.8,0.4,1.4,0.9,1.8,1.5c0.4,0.6,0.7,1.4,0.7,2.3h-2.9
			c0-0.5-0.2-1-0.6-1.4c-0.4-0.4-0.9-0.6-1.6-0.6c-0.6,0-1.1,0.1-1.5,0.4c-0.4,0.3-0.6,0.7-0.6,1.3c0,0.5,0.2,0.9,0.5,1.2
			s0.7,0.5,1.3,0.7c0.5,0.2,1.2,0.4,1.8,0.6c0.7,0.2,1.4,0.5,2,0.9c0.6,0.3,1.1,0.8,1.5,1.4c0.4,0.6,0.6,1.3,0.6,2.2
			c0,0.8-0.2,1.5-0.6,2.2c-0.4,0.7-1,1.2-1.8,1.6C666.7,180.2,665.7,180.4,664.6,180.4z M672.2,180.1v-14.9h9.8v2.2h-7v4.1h6.4v2.1
			H675v4.3h7v2.2H672.2z M688.9,180.1l-5.5-14.9h2.9l4.2,12.1l4.2-12.1h2.9l-5.5,14.9H688.9z M699.5,180.1v-14.9h9.8v2.2h-7v4.1h6.4
			v2.1h-6.4v4.3h7v2.2H699.5z M711.8,180.1v-14.9h5.5c1.2,0,2.2,0.2,2.9,0.6c0.8,0.4,1.4,1,1.8,1.7c0.4,0.7,0.6,1.4,0.6,2.3
			c0,0.9-0.2,1.8-0.7,2.5c-0.5,0.8-1.2,1.3-2.2,1.6l3.1,6.2h-3.1l-2.8-5.9h-2.2v5.9H711.8z M714.5,172.2h2.6c0.9,0,1.6-0.2,2-0.7
			c0.4-0.4,0.6-1,0.6-1.8c0-0.7-0.2-1.3-0.6-1.7c-0.4-0.4-1.1-0.6-2-0.6h-2.5V172.2z M724.1,180.1l5.5-14.9h3.1l5.5,14.9h-2.9
			l-1.2-3.5h-5.8l-1.2,3.5H724.1z M728.9,174.5h4.3l-2.2-6.2L728.9,174.5z M740,180.1v-14.9h2.7V178h6.6v2.1H740z M760.3,180.1
			v-12.7H756v-2.2h11.5v2.2h-4.4v12.7H760.3z M769.5,180.1v-14.9h2.7v14.9H769.5z M775.1,180.1v-14.9h3.2l4.8,9.5l4.7-9.5h3.2v14.9
			h-2.7v-10.3l-4.2,8.2H782l-4.2-8.2v10.3H775.1z M793.9,180.1v-14.9h9.8v2.2h-7v4.1h6.4v2.1h-6.4v4.3h7v2.2H793.9z M811.4,180.4
			c-1.1,0-2.1-0.2-2.9-0.6c-0.8-0.4-1.5-0.9-2-1.6c-0.5-0.7-0.7-1.6-0.7-2.6h2.9c0,0.7,0.3,1.3,0.8,1.8c0.5,0.5,1.1,0.7,2,0.7
			c0.7,0,1.3-0.2,1.7-0.5c0.4-0.4,0.6-0.8,0.6-1.4c0-0.6-0.2-1.1-0.6-1.4c-0.4-0.3-0.9-0.6-1.5-0.8c-0.6-0.2-1.3-0.4-2-0.7
			c-1.1-0.4-2-0.9-2.6-1.5c-0.6-0.6-0.9-1.5-0.9-2.5c0-0.9,0.2-1.6,0.6-2.3c0.4-0.6,1-1.1,1.8-1.5c0.7-0.4,1.6-0.5,2.6-0.5
			c1,0,1.9,0.2,2.6,0.5c0.8,0.4,1.4,0.9,1.8,1.5c0.4,0.6,0.7,1.4,0.7,2.3h-2.9c0-0.5-0.2-1-0.6-1.4c-0.4-0.4-0.9-0.6-1.6-0.6
			c-0.6,0-1.1,0.1-1.5,0.4c-0.4,0.3-0.6,0.7-0.6,1.3c0,0.5,0.2,0.9,0.5,1.2c0.3,0.3,0.7,0.5,1.3,0.7c0.5,0.2,1.2,0.4,1.8,0.6
			c0.7,0.2,1.4,0.5,2,0.9c0.6,0.3,1.1,0.8,1.5,1.4c0.4,0.6,0.6,1.3,0.6,2.2c0,0.8-0.2,1.5-0.6,2.2c-0.4,0.7-1,1.2-1.8,1.6
			C813.4,180.2,812.5,180.4,811.4,180.4z M824.1,180.1v-14.9h5.5c1.2,0,2.2,0.2,3,0.6c0.8,0.4,1.4,0.9,1.8,1.6
			c0.4,0.7,0.6,1.5,0.6,2.3c0,0.8-0.2,1.6-0.6,2.3c-0.4,0.7-0.9,1.2-1.7,1.7s-1.8,0.6-3,0.6h-2.8v5.8H824.1z M826.8,172.1h2.6
			c1,0,1.6-0.2,2.1-0.6c0.4-0.4,0.6-1,0.6-1.7c0-0.7-0.2-1.3-0.6-1.7c-0.4-0.4-1.1-0.6-2.1-0.6h-2.6V172.1z M837,180.1v-14.9h9.8
			v2.2h-7v4.1h6.4v2.1h-6.4v4.3h7v2.2H837z M849.3,180.1v-14.9h5.5c1.2,0,2.2,0.2,2.9,0.6c0.8,0.4,1.4,1,1.8,1.7
			c0.4,0.7,0.6,1.4,0.6,2.3c0,0.9-0.2,1.8-0.7,2.5c-0.5,0.8-1.2,1.3-2.2,1.6l3.1,6.2h-3.1l-2.8-5.9h-2.2v5.9H849.3z M852.1,172.2
			h2.6c0.9,0,1.6-0.2,2-0.7c0.4-0.4,0.6-1,0.6-1.8s-0.2-1.3-0.6-1.7c-0.4-0.4-1.1-0.6-2-0.6h-2.5V172.2z"/>
		<path class="st7" d="M662.5,206.1l-4-14.9h2.9l2.7,11.9l3.2-11.9h3l3.1,11.9l2.7-11.9h3l-4.1,14.9h-3.2l-3-11.1l-3,11.1H662.5z
			 M681,206.1v-14.9h9.8v2.2h-7v4.1h6.4v2.1h-6.4v4.3h7v2.2H681z M693.4,206.1v-14.9h9.8v2.2h-7v4.1h6.4v2.1h-6.4v4.3h7v2.2H693.4z
			 M705.7,206.1v-14.9h2.7v6l5.5-6h3.4l-5.5,5.9l5.6,9h-3.3l-4.3-6.9l-1.4,1.5v5.4H705.7z"/>
		<path class="st6" d="M649,294.4h217.4v55.4H649V294.4z"/>
		<path class="st7" d="M659.5,303.6v-14.9h2.7v6.2h6.7v-6.2h2.7v14.9h-2.7v-6.5h-6.7v6.5H659.5z M673.6,303.6l5.5-14.9h3.1l5.5,14.9
			h-2.9l-1.2-3.5h-5.8l-1.2,3.5H673.6z M678.4,298h4.3l-2.2-6.2L678.4,298z M691.9,303.6l-5.5-14.9h2.9l4.2,12.1l4.2-12.1h2.9
			l-5.5,14.9H691.9z M702.5,303.6v-14.9h9.8v2.2h-7v4.1h6.4v2.1h-6.4v4.3h7v2.2H702.5z M719.9,303.6v-14.9h5.5c1.2,0,2.2,0.2,3,0.6
			c0.8,0.4,1.4,0.9,1.8,1.6c0.4,0.7,0.6,1.5,0.6,2.3c0,0.8-0.2,1.6-0.6,2.3c-0.4,0.7-0.9,1.2-1.7,1.7c-0.8,0.4-1.8,0.6-3,0.6h-2.8
			v5.8H719.9z M722.7,295.6h2.6c1,0,1.6-0.2,2.1-0.6c0.4-0.4,0.6-1,0.6-1.7c0-0.7-0.2-1.3-0.6-1.7c-0.4-0.4-1.1-0.6-2.1-0.6h-2.6
			V295.6z M738.6,303.9c-1.1,0-2.1-0.2-3-0.6c-0.9-0.4-1.6-1.1-2.1-2c-0.5-0.9-0.8-2-0.8-3.4v-9.2h2.7v9.2c0,1.2,0.3,2,0.8,2.6
			c0.6,0.6,1.3,0.9,2.3,0.9c1,0,1.8-0.3,2.3-0.9c0.6-0.6,0.9-1.4,0.9-2.6v-9.2h2.7v9.2c0,1.4-0.3,2.5-0.8,3.4
			c-0.5,0.9-1.3,1.5-2.2,2C740.7,303.6,739.7,303.9,738.6,303.9z M747.4,303.6v-14.9h5.5c1.2,0,2.2,0.2,2.9,0.6
			c0.8,0.4,1.4,1,1.8,1.7c0.4,0.7,0.6,1.4,0.6,2.3c0,0.9-0.2,1.8-0.7,2.5s-1.2,1.3-2.2,1.6l3.1,6.2h-3.1l-2.8-5.9h-2.2v5.9H747.4z
			 M750.1,295.7h2.6c0.9,0,1.6-0.2,2-0.7c0.4-0.4,0.6-1,0.6-1.8s-0.2-1.3-0.6-1.7c-0.4-0.4-1.1-0.6-2-0.6h-2.5V295.7z M767.4,303.9
			c-1.5,0-2.8-0.3-3.9-1c-1.1-0.6-1.9-1.5-2.5-2.7c-0.6-1.2-0.9-2.5-0.9-4c0-1.5,0.3-2.9,0.9-4c0.6-1.2,1.4-2.1,2.5-2.7
			c1.1-0.7,2.4-1,3.9-1c1.8,0,3.3,0.4,4.4,1.3c1.1,0.9,1.9,2.1,2.2,3.7h-3c-0.2-0.8-0.6-1.4-1.2-1.9c-0.6-0.5-1.4-0.7-2.4-0.7
			c-1.4,0-2.5,0.5-3.2,1.4c-0.8,0.9-1.2,2.2-1.2,3.9c0,1.6,0.4,2.9,1.2,3.8c0.8,0.9,1.9,1.4,3.2,1.4c1,0,1.8-0.2,2.4-0.6
			c0.6-0.4,1-1,1.2-1.8h3c-0.3,1.5-1,2.7-2.2,3.6C770.7,303.4,769.2,303.9,767.4,303.9z M776.4,303.6v-14.9h2.7v6.2h6.7v-6.2h2.7
			v14.9h-2.7v-6.5h-6.7v6.5H776.4z M790.5,303.6l5.5-14.9h3.1l5.5,14.9h-2.9l-1.2-3.5h-5.8l-1.2,3.5H790.5z M795.3,298h4.3l-2.2-6.2
			L795.3,298z M811.5,303.9c-1.1,0-2.1-0.2-2.9-0.6c-0.8-0.4-1.5-0.9-2-1.6c-0.5-0.7-0.7-1.6-0.7-2.6h2.9c0,0.7,0.3,1.3,0.8,1.8
			c0.5,0.5,1.1,0.7,2,0.7c0.7,0,1.3-0.2,1.7-0.5c0.4-0.4,0.6-0.8,0.6-1.4c0-0.6-0.2-1.1-0.6-1.4s-0.9-0.6-1.5-0.8
			c-0.6-0.2-1.3-0.4-2-0.7c-1.1-0.4-2-0.9-2.6-1.5s-0.9-1.5-0.9-2.5c0-0.9,0.2-1.6,0.6-2.3c0.4-0.6,1-1.1,1.8-1.5
			c0.8-0.4,1.6-0.5,2.6-0.5s1.9,0.2,2.6,0.5c0.8,0.4,1.4,0.9,1.8,1.5c0.4,0.6,0.7,1.4,0.7,2.3h-2.9c0-0.5-0.2-1-0.6-1.4
			c-0.4-0.4-0.9-0.6-1.6-0.6c-0.6,0-1.1,0.1-1.5,0.4c-0.4,0.3-0.6,0.7-0.6,1.3c0,0.5,0.2,0.9,0.5,1.2c0.3,0.3,0.7,0.5,1.3,0.7
			c0.5,0.2,1.2,0.4,1.8,0.6c0.7,0.2,1.4,0.5,2,0.9s1.1,0.8,1.5,1.4c0.4,0.6,0.6,1.3,0.6,2.2c0,0.8-0.2,1.5-0.6,2.2
			c-0.4,0.7-1,1.2-1.8,1.6C813.6,303.7,812.6,303.9,811.5,303.9z M819.1,303.6v-14.9h9.8v2.2h-7v4.1h6.4v2.1h-6.4v4.3h7v2.2H819.1z
			 M831.5,303.6v-14.9h5.1c1.7,0,3.2,0.3,4.3,0.9c1.1,0.6,2,1.5,2.5,2.6c0.6,1.1,0.8,2.4,0.8,3.9c0,1.5-0.3,2.8-0.8,3.9
			c-0.5,1.1-1.4,2-2.5,2.6c-1.1,0.6-2.6,0.9-4.3,0.9H831.5z M834.2,301.3h2.2c1.2,0,2.2-0.2,3-0.6c0.7-0.4,1.2-1,1.6-1.8
			c0.3-0.8,0.5-1.7,0.5-2.8c0-1.1-0.2-2-0.5-2.8c-0.3-0.8-0.8-1.4-1.6-1.8c-0.7-0.4-1.7-0.6-3-0.6h-2.2V301.3z"/>
		<path class="st7" d="M666,329.9c-1.4,0-2.7-0.3-3.7-1c-1.1-0.6-1.9-1.5-2.5-2.7c-0.6-1.1-0.9-2.5-0.9-4c0-1.5,0.3-2.9,0.9-4.1
			c0.6-1.2,1.5-2.1,2.6-2.8c1.1-0.7,2.5-1,4-1c1.8,0,3.2,0.4,4.3,1.3c1.2,0.8,1.9,2,2.2,3.5h-3c-0.2-0.7-0.6-1.2-1.2-1.6
			c-0.6-0.4-1.4-0.6-2.3-0.6c-1.5,0-2.6,0.5-3.5,1.4c-0.8,0.9-1.2,2.2-1.2,3.9c0,1.6,0.4,2.9,1.2,3.8c0.8,0.9,1.9,1.4,3.3,1.4
			c1.4,0,2.4-0.4,3.1-1.1c0.7-0.7,1.1-1.7,1.2-2.9h-3.8v-2.1h6.5v8.2h-2.5l-0.2-2c-0.5,0.7-1.1,1.3-1.8,1.7
			C668.1,329.7,667.1,329.9,666,329.9z M683,329.9c-1.5,0-2.8-0.3-3.9-1c-1.1-0.7-2-1.6-2.6-2.7c-0.6-1.2-1-2.5-1-4
			c0-1.5,0.3-2.9,1-4c0.6-1.2,1.5-2.1,2.6-2.7c1.1-0.7,2.4-1,3.9-1c1.5,0,2.8,0.3,3.9,1c1.1,0.7,2,1.6,2.6,2.7s0.9,2.5,0.9,4
			c0,1.5-0.3,2.9-0.9,4c-0.6,1.2-1.5,2.1-2.6,2.7C685.8,329.5,684.5,329.9,683,329.9z M683,327.4c1.4,0,2.5-0.5,3.4-1.4
			s1.3-2.2,1.3-3.9c0-1.6-0.4-2.9-1.3-3.9s-2-1.4-3.4-1.4c-1.4,0-2.6,0.5-3.4,1.4c-0.9,0.9-1.3,2.2-1.3,3.9c0,1.6,0.4,2.9,1.3,3.9
			C680.4,326.9,681.6,327.4,683,327.4z M699.9,329.9c-1.5,0-2.8-0.3-3.9-1c-1.1-0.7-2-1.6-2.6-2.7c-0.6-1.2-1-2.5-1-4
			c0-1.5,0.3-2.9,1-4c0.6-1.2,1.5-2.1,2.6-2.7c1.1-0.7,2.4-1,3.9-1c1.5,0,2.8,0.3,3.9,1c1.1,0.7,2,1.6,2.6,2.7
			c0.6,1.2,0.9,2.5,0.9,4c0,1.5-0.3,2.9-0.9,4c-0.6,1.2-1.5,2.1-2.6,2.7C702.6,329.5,701.3,329.9,699.9,329.9z M699.9,327.4
			c1.4,0,2.5-0.5,3.4-1.4c0.8-0.9,1.3-2.2,1.3-3.9c0-1.6-0.4-2.9-1.3-3.9c-0.8-0.9-2-1.4-3.4-1.4c-1.4,0-2.6,0.5-3.4,1.4
			c-0.9,0.9-1.3,2.2-1.3,3.9c0,1.6,0.4,2.9,1.3,3.9C697.3,326.9,698.4,327.4,699.9,327.4z M709.7,329.6v-14.9h5.1
			c1.8,0,3.2,0.3,4.3,0.9c1.1,0.6,2,1.5,2.5,2.6c0.6,1.1,0.8,2.4,0.8,3.9c0,1.5-0.3,2.8-0.8,3.9c-0.5,1.1-1.4,2-2.5,2.6
			c-1.1,0.6-2.6,0.9-4.3,0.9H709.7z M712.5,327.3h2.2c1.3,0,2.2-0.2,3-0.6c0.7-0.4,1.3-1,1.6-1.8c0.3-0.8,0.5-1.7,0.5-2.8
			c0-1.1-0.2-2-0.5-2.8c-0.3-0.8-0.8-1.4-1.6-1.8c-0.7-0.4-1.7-0.6-3-0.6h-2.2V327.3z M730,329.9c-1.1,0-2.1-0.2-2.9-0.6
			c-0.8-0.4-1.5-0.9-2-1.6c-0.5-0.7-0.7-1.6-0.7-2.6h2.9c0,0.7,0.3,1.3,0.8,1.8c0.5,0.5,1.1,0.7,2,0.7c0.7,0,1.3-0.2,1.7-0.5
			c0.4-0.4,0.6-0.8,0.6-1.4c0-0.6-0.2-1.1-0.6-1.4s-0.9-0.6-1.5-0.8c-0.6-0.2-1.3-0.4-2-0.7c-1.1-0.4-2-0.9-2.6-1.5
			c-0.6-0.6-0.9-1.5-0.9-2.5c0-0.9,0.2-1.6,0.6-2.3c0.4-0.6,1-1.1,1.8-1.5c0.8-0.4,1.6-0.5,2.6-0.5c1,0,1.9,0.2,2.6,0.5
			c0.8,0.4,1.4,0.9,1.8,1.5c0.4,0.6,0.7,1.4,0.7,2.3h-2.9c0-0.5-0.2-1-0.6-1.4c-0.4-0.4-0.9-0.6-1.6-0.6c-0.6,0-1.1,0.1-1.5,0.4
			c-0.4,0.3-0.6,0.7-0.6,1.3c0,0.5,0.2,0.9,0.5,1.2c0.3,0.3,0.7,0.5,1.3,0.7c0.5,0.2,1.2,0.4,1.8,0.6c0.7,0.2,1.4,0.5,2,0.9
			c0.6,0.3,1.1,0.8,1.5,1.4c0.4,0.6,0.6,1.3,0.6,2.2c0,0.8-0.2,1.5-0.6,2.2c-0.4,0.7-1,1.2-1.8,1.6
			C732.1,329.7,731.1,329.9,730,329.9z M742.7,329.6v-14.9h9.6v2.2h-6.9v4.2h5.6v2.1h-5.6v6.4H742.7z M754.5,329.6v-14.9h5.5
			c1.2,0,2.2,0.2,2.9,0.6c0.8,0.4,1.4,1,1.8,1.7c0.4,0.7,0.6,1.4,0.6,2.3c0,0.9-0.2,1.8-0.7,2.5s-1.2,1.3-2.2,1.6l3.1,6.2h-3.1
			l-2.8-5.9h-2.2v5.9H754.5z M757.2,321.7h2.6c0.9,0,1.6-0.2,2-0.7c0.4-0.4,0.6-1,0.6-1.8s-0.2-1.3-0.6-1.7c-0.4-0.4-1.1-0.6-2-0.6
			h-2.5V321.7z M774.7,329.9c-1.5,0-2.8-0.3-3.9-1c-1.1-0.7-2-1.6-2.6-2.7c-0.6-1.2-1-2.5-1-4c0-1.5,0.3-2.9,1-4
			c0.6-1.2,1.5-2.1,2.6-2.7c1.1-0.7,2.4-1,3.9-1c1.5,0,2.8,0.3,3.9,1c1.1,0.7,2,1.6,2.6,2.7c0.6,1.2,0.9,2.5,0.9,4
			c0,1.5-0.3,2.9-0.9,4c-0.6,1.2-1.5,2.1-2.6,2.7C777.5,329.5,776.2,329.9,774.7,329.9z M774.7,327.4c1.4,0,2.5-0.5,3.4-1.4
			c0.8-0.9,1.3-2.2,1.3-3.9c0-1.6-0.4-2.9-1.3-3.9c-0.8-0.9-2-1.4-3.4-1.4c-1.4,0-2.6,0.5-3.4,1.4c-0.9,0.9-1.3,2.2-1.3,3.9
			c0,1.6,0.4,2.9,1.3,3.9C772.2,326.9,773.3,327.4,774.7,327.4z M784.6,329.6v-14.9h3.2l4.8,9.5l4.7-9.5h3.2v14.9h-2.7v-10.3
			l-4.2,8.2h-2.2l-4.2-8.2v10.3H784.6z M807.5,329.6l5.5-14.9h3.1l5.5,14.9h-2.9l-1.2-3.5h-5.8l-1.2,3.5H807.5z M812.4,324h4.3
			l-2.2-6.2L812.4,324z"/>
		<path class="st7" d="M659.5,355.6v-14.9h2.7v12.8h6.6v2.1H659.5z M676.9,355.9c-1.5,0-2.8-0.3-3.9-1c-1.1-0.7-2-1.6-2.6-2.7
			c-0.6-1.2-1-2.5-1-4c0-1.5,0.3-2.9,1-4c0.6-1.2,1.5-2.1,2.6-2.7c1.1-0.7,2.4-1,3.9-1c1.5,0,2.8,0.3,3.9,1c1.1,0.7,2,1.6,2.6,2.7
			s0.9,2.5,0.9,4c0,1.5-0.3,2.9-0.9,4c-0.6,1.2-1.5,2.1-2.6,2.7C679.7,355.5,678.4,355.9,676.9,355.9z M676.9,353.4
			c1.4,0,2.5-0.5,3.4-1.4s1.3-2.2,1.3-3.9c0-1.6-0.4-2.9-1.3-3.9s-2-1.4-3.4-1.4c-1.4,0-2.6,0.5-3.4,1.4c-0.9,0.9-1.3,2.2-1.3,3.9
			c0,1.6,0.4,2.9,1.3,3.9C674.3,352.9,675.5,353.4,676.9,353.4z M693.5,355.9c-1.5,0-2.8-0.3-3.9-1c-1.1-0.6-1.9-1.5-2.5-2.7
			c-0.6-1.2-0.9-2.5-0.9-4c0-1.5,0.3-2.9,0.9-4c0.6-1.2,1.4-2.1,2.5-2.7c1.1-0.7,2.4-1,3.9-1c1.8,0,3.3,0.4,4.4,1.3
			c1.1,0.9,1.9,2.1,2.2,3.7h-3c-0.2-0.8-0.6-1.4-1.2-1.9c-0.6-0.5-1.4-0.7-2.4-0.7c-1.4,0-2.5,0.5-3.2,1.4c-0.8,0.9-1.2,2.2-1.2,3.9
			c0,1.6,0.4,2.9,1.2,3.8c0.8,0.9,1.9,1.4,3.2,1.4c1,0,1.8-0.2,2.4-0.6c0.6-0.4,1-1,1.2-1.8h3c-0.3,1.5-1,2.7-2.2,3.6
			C696.8,355.4,695.3,355.9,693.5,355.9z M701.3,355.6l5.5-14.9h3.1l5.5,14.9h-2.9l-1.2-3.5h-5.8l-1.2,3.5H701.3z M706.2,350h4.3
			l-2.2-6.2L706.2,350z M717.3,355.6v-14.9h2.7v12.8h6.6v2.1H717.3z M734.1,355.6v-14.9h9.6v2.2h-6.9v4.2h5.6v2.1h-5.6v6.4H734.1z
			 M743.2,355.6l5.5-14.9h3.1l5.5,14.9h-2.9l-1.2-3.5h-5.8l-1.2,3.5H743.2z M748.1,350h4.3l-2.2-6.2L748.1,350z M759.2,355.6v-14.9
			h5.5c1.2,0,2.2,0.2,2.9,0.6c0.8,0.4,1.4,1,1.8,1.7c0.4,0.7,0.6,1.4,0.6,2.3c0,0.9-0.2,1.8-0.7,2.5c-0.5,0.8-1.2,1.3-2.2,1.6
			l3.1,6.2h-3.1l-2.8-5.9h-2.2v5.9H759.2z M761.9,347.7h2.6c0.9,0,1.6-0.2,2-0.7c0.4-0.4,0.6-1,0.6-1.8s-0.2-1.3-0.6-1.7
			c-0.4-0.4-1.1-0.6-2-0.6h-2.5V347.7z M772.5,355.6v-14.9h3.2l4.8,9.5l4.7-9.5h3.2v14.9h-2.7v-10.3l-4.2,8.2h-2.2l-4.2-8.2v10.3
			H772.5z"/>
	</g>
</g>
</svg>
