<svg xmlns="http://www.w3.org/2000/svg" width="84" height="84" viewBox="0 0 84 84">
  <g id="Group_19" data-name="Group 19" transform="translate(-669 -524)">
    <circle id="Ellipse_6" data-name="Ellipse 6" cx="42" cy="42" r="42" transform="translate(669 524)" fill="#fff"/>
    <g id="Icon_zocial-dribbble" data-name="Icon zocial-dribbble" transform="translate(693 548)">
      <path id="Icon_zocial-dribbble-2" data-name="Icon zocial-dribbble" d="M0,18A17.633,17.633,0,0,1,2.412,8.964,17.872,17.872,0,0,1,8.964,2.412,17.633,17.633,0,0,1,18,0a17.633,17.633,0,0,1,9.036,2.412,17.872,17.872,0,0,1,6.552,6.552A17.633,17.633,0,0,1,36,18a17.633,17.633,0,0,1-2.412,9.036,17.872,17.872,0,0,1-6.552,6.552A17.633,17.633,0,0,1,18,36a17.633,17.633,0,0,1-9.036-2.412,17.872,17.872,0,0,1-6.552-6.552A17.633,17.633,0,0,1,0,18Zm2.988,0a14.515,14.515,0,0,0,3.78,9.9,20.6,20.6,0,0,1,5.472-6.444A17.9,17.9,0,0,1,19.548,17.6q-.54-1.26-1.044-2.268a43.742,43.742,0,0,1-13.392,1.98q-1.4,0-2.088-.036,0,.144-.018.36T2.988,18Zm.468-3.708q.792.072,2.34.072a39.509,39.509,0,0,0,11.412-1.62,36.454,36.454,0,0,0-6.012-8.1,14.614,14.614,0,0,0-4.878,4,15.369,15.369,0,0,0-2.862,5.652ZM8.82,29.844A14.711,14.711,0,0,0,23.292,32a52.863,52.863,0,0,0-2.808-11.916,15.353,15.353,0,0,0-6.678,3.636,20.421,20.421,0,0,0-4.986,6.12ZM14.328,3.492A38.257,38.257,0,0,1,20.2,11.664a17.929,17.929,0,0,0,7.38-5.22A14.593,14.593,0,0,0,18,2.988a13.818,13.818,0,0,0-3.672.5ZM21.492,14.22q.54,1.152,1.224,2.916,2.664-.252,5.8-.252,2.232,0,4.428.108A14.453,14.453,0,0,0,29.412,8.28q-2.34,3.492-7.92,5.94Zm2.124,5.436A51.672,51.672,0,0,1,26.1,30.6a15.02,15.02,0,0,0,4.644-4.716,14.541,14.541,0,0,0,2.16-6.228q-2.628-.18-4.788-.18Q26.136,19.476,23.616,19.656Z" fill="#0284d5"/>
    </g>
  </g>
</svg>
