<svg id="Component_5_1" data-name="Component 5 – 1" xmlns="http://www.w3.org/2000/svg" width="84" height="84" viewBox="0 0 84 84">
  <circle id="Ellipse_2" data-name="Ellipse 2" cx="42" cy="42" r="42" fill="#ef3c3d"/>
  <g id="Group_14" data-name="Group 14" transform="translate(18.004 18.004)">
    <path id="Path_45" data-name="Path 45" d="M45,24a5,5,0,0,0-2.52-7.78,5,5,0,0,0-3.6-7.14,5,5,0,0,0-6.22-5.9A5,5,0,0,0,24,2a5,5,0,0,0-8.66,1.18,5,5,0,0,0-6.22,5.9,5,5,0,0,0-3.6,7.14A5,5,0,0,0,3,24a5,5,0,0,0,0,6,5,5,0,0,0,3,7.9,5,5,0,0,0,4.08,5,5,5,0,0,0,5.83,4,5.089,5.089,0,0,0,.75-.2,5,5,0,0,0,7.062-.363c.1-.108.19-.221.278-.337a5,5,0,0,0,7,1c.117-.088.231-.181.34-.279a5,5,0,0,0,6.58-3.8,5,5,0,0,0,4.08-5A5,5,0,0,0,45,30,5,5,0,0,0,45,24ZM41,36a1,1,0,0,0-1.129.851.988.988,0,0,0,.019.379,3,3,0,0,1-2,3.63c-.33-1.41-1.43-3.21-2.51-2.25A1,1,0,0,0,35.25,40a3,3,0,0,1-3.68,4.62C30.29,44,30.26,46,28,46a3,3,0,0,1-3-3,1,1,0,0,0-2,0,3,3,0,0,1-3,3c-2.26,0-2.29-2-3.57-1.36A3,3,0,0,1,12.75,40a1,1,0,0,0-.09-1.41c-1.08-1-2.18.84-2.51,2.25A3,3,0,0,1,8.1,37.23,1,1,0,0,0,7,36a3,3,0,0,1,0-6,1,1,0,0,0,1-1c0-1.49-2.21-1.06-3.48-.33A3,3,0,0,1,5,24.75a1,1,0,0,0,.089-1.411A1.068,1.068,0,0,0,5,23.25,3,3,0,0,1,7,18a3.057,3.057,0,0,1,2,.74,1,1,0,0,0,1.41-.11h0c1-1.15-1-2.28-2.51-2.54A3,3,0,0,1,10,11c2.31,3.1,3.79.35,2.47-.42A2.843,2.843,0,0,1,11.4,9.52a3,3,0,0,1,4.09-4.11c.91.54.89,1.12,1.64,1.12a1,1,0,0,0,.78-1.62,5.108,5.108,0,0,0-.81-.8A3,3,0,0,1,23,5a1,1,0,0,0,2,0,3,3,0,0,1,5.87-.88,5.108,5.108,0,0,0-.81.8,1,1,0,0,0,.78,1.62c.76,0,.73-.6,1.62-1.11a3,3,0,1,1,3.529,4.852,2.944,2.944,0,0,1-.529.308c-1.33.77.17,3.51,2.47.42a3,3,0,0,1,2.16,5.08c-1.47.27-3.49,1.39-2.51,2.54a1,1,0,0,0,1.41.11h0A3,3,0,0,1,44,21c0,1.81-1.36,2.11-1.36,3S44,25.08,44,27a3.007,3.007,0,0,1-.52,1.67A5,5,0,0,0,41,28a1,1,0,0,0,0,2,3,3,0,0,1,0,6Z" fill="#fff"/>
    <path id="Path_46" data-name="Path 46" d="M27,32.72c2.26-1.32-.24-5.51,2-7.87a6.94,6.94,0,0,0,1.87-6h0a7,7,0,1,0-12.09,5.83c2.59,2.83-.17,6.64,2.18,8a3.02,3.02,0,0,0,6.04.04ZM22,29h4v2H22Zm-3-9a5,5,0,1,1,8.6,3.46A5.894,5.894,0,0,0,26,27H22C21.68,23.59,19,23.3,19,20Zm4,13h2a1,1,0,0,1-2,0Z" fill="#fff"/>
    <path id="Path_47" data-name="Path 47" d="M25,10V9a1,1,0,0,0-2,0v1a1,1,0,0,0,2,0Z" fill="#fff"/>
    <path id="Path_48" data-name="Path 48" d="M16.22,13.64a1,1,0,1,0,1.42-1.42l-.71-.71a1,1,0,0,0-1.41,1.42Z" fill="#fff"/>
    <path id="Path_49" data-name="Path 49" d="M14,19H13a1,1,0,0,0,0,2h1a1,1,0,0,0,0-2Z" fill="#fff"/>
    <path id="Path_50" data-name="Path 50" d="M16.22,28.78c.5,0,.64-.23,1.42-1a1,1,0,0,0-1.42-1.42l-.7.71a1,1,0,0,0,.7,1.71Z" fill="#fff"/>
    <path id="Path_51" data-name="Path 51" d="M31.07,13.93c.49,0,.64-.23,1.41-1a1,1,0,1,0-1.41-1.42l-.71.71a1,1,0,0,0,.71,1.71Z" fill="#fff"/>
    <path id="Path_52" data-name="Path 52" d="M35,21a1,1,0,0,0,0-2H34a1,1,0,0,0,0,2Z" fill="#fff"/>
    <path id="Path_53" data-name="Path 53" d="M31.78,26.36a1,1,0,0,0-1.42,1.42c.65.64.88,1,1.42,1a1,1,0,0,0,.7-1.71Z" fill="#fff"/>
    <path id="Path_54" data-name="Path 54" d="M23.25,20.67l-.55.73a1,1,0,0,0,1.6,1.2c1.54-2.06,1.54-1.81.45-3.27l.55-.73a1,1,0,1,0-1.6-1.2C22.15,19.47,22.17,19.22,23.25,20.67Z" fill="#fff"/>
    <path id="Path_55" data-name="Path 55" d="M17.93,37.25c-.27-1.42-1.5-3.09-2.52-2.08a1,1,0,0,0-.006,1.414l.006.006a2,2,0,0,1,0,2.8c-1.11,1.15,1.22,3.22,2.34-.12A2.141,2.141,0,0,1,19,41a1,1,0,0,0,1,1C22,42,20.82,37.82,17.93,37.25Z" fill="#fff"/>
    <path id="Path_56" data-name="Path 56" d="M11.93,30.37A2.182,2.182,0,0,1,13,28.55a1,1,0,0,0,.52-1.31c-.8-1.83-4.16.92-3.52,3.8a4,4,0,0,0-1.47,1.84,1,1,0,0,0,.93,1.36c1.09,0,.73-1.18,2-1.74a2,2,0,0,1,1.5,0C14.48,33,15.44,30.06,11.93,30.37Z" fill="#fff"/>
    <path id="Path_57" data-name="Path 57" d="M38,31a4,4,0,0,0-2.2-4.32,1,1,0,0,0-.8,1.83,2.171,2.171,0,0,1,1.1,1.82c-3.47-.31-2.56,2.66-1,2.09a2,2,0,0,1,1.5,0c1.29.57.86,1.74,2,1.74a1,1,0,0,0,.93-1.36A4,4,0,0,0,38,31Z" fill="#fff"/>
    <path id="Path_58" data-name="Path 58" d="M32.58,35.17c-1-1-2.24.66-2.51,2.08A4,4,0,0,0,27,41a1,1,0,0,0,2,0,2.15,2.15,0,0,1,1.22-1.73c1.12,3.32,3.46,1.27,2.34.12a2,2,0,0,1,0-2.8,1,1,0,0,0,.026-1.414Z" fill="#fff"/>
  </g>
</svg>
